<?xml version="1.0" encoding="UTF-8" standalone="no"?><svg xmlns="http://www.w3.org/2000/svg" xmlns:xlink="http://www.w3.org/1999/xlink" width="500" zoomAndPan="magnify" viewBox="0 0 375 374.999991" height="500" preserveAspectRatio="xMidYMid meet" version="1.0"><defs><g/><clipPath id="463e080243"><path d="M 220 63.179688 L 298 63.179688 L 298 136.679688 L 220 136.679688 Z M 220 63.179688 " clip-rule="nonzero"/></clipPath><clipPath id="7542921953"><path d="M 330 125 L 336.839844 125 L 336.839844 130 L 330 130 Z M 330 125 " clip-rule="nonzero"/></clipPath><clipPath id="2ad4178a3b"><path d="M 330 120 L 336.839844 120 L 336.839844 126 L 330 126 Z M 330 120 " clip-rule="nonzero"/></clipPath><clipPath id="ffd907ca65"><path d="M 216.910156 84 L 224 84 L 224 88 L 216.910156 88 Z M 216.910156 84 " clip-rule="nonzero"/></clipPath></defs><g clip-path="url(#463e080243)"><path fill="#cc0000" d="M 236.828125 70.332031 C 236.085938 69.585938 235.109375 69.214844 234.132812 69.214844 C 233.15625 69.214844 232.183594 69.585938 231.441406 70.332031 C 229.953125 71.824219 229.953125 74.25 231.441406 75.742188 C 232.925781 77.230469 235.339844 77.230469 236.828125 75.742188 C 238.3125 74.25 238.3125 71.824219 236.828125 70.332031 Z M 242.933594 124.882812 C 242.964844 124.9375 243 124.980469 243.03125 125.03125 L 255.035156 125.503906 L 253.261719 129.183594 C 261.789062 129.96875 269.511719 125.664062 277.472656 123.371094 C 277.957031 123.234375 278.410156 123.097656 278.839844 122.96875 L 267.230469 111.308594 L 265.867188 109.941406 L 265.601562 109.675781 L 265.46875 109.539062 L 265.59375 110.496094 L 265.722656 111.449219 C 265.246094 111.507812 264.785156 111.449219 264.367188 111.289062 C 264.125 111.195312 263.894531 111.066406 263.691406 110.90625 C 263.136719 110.476562 262.753906 109.84375 262.671875 109.105469 L 262.386719 106.445312 L 261.398438 105.457031 L 246.308594 90.300781 C 240.136719 91.929688 232.746094 97.621094 232.746094 97.621094 L 231.261719 96.132812 L 241.6875 85.664062 L 238.09375 82.054688 C 236.863281 82.601562 235.519531 82.890625 234.132812 82.890625 C 231.605469 82.890625 229.226562 81.9375 227.398438 80.203125 C 227.144531 80.59375 226.820312 80.894531 226.457031 81.097656 C 226.234375 81.222656 225.992188 81.316406 225.75 81.371094 C 225.089844 81.519531 224.371094 81.414062 223.738281 81.035156 C 222.9375 80.558594 222.128906 80.085938 221.316406 79.625 C 221.035156 79.464844 220.753906 79.300781 220.46875 79.144531 C 220.734375 78.695312 221.085938 78.351562 221.476562 78.121094 C 221.707031 77.984375 221.953125 77.886719 222.199219 77.828125 C 222.875 77.667969 223.59375 77.777344 224.222656 78.167969 C 225.019531 78.664062 225.824219 79.152344 226.625 79.640625 C 226.796875 79.742188 226.96875 79.847656 227.140625 79.953125 C 226.871094 79.675781 226.621094 79.386719 226.386719 79.085938 C 226.128906 78.757812 225.894531 78.414062 225.683594 78.0625 C 224.980469 77.644531 224.28125 77.21875 223.582031 76.792969 C 223.320312 76.632812 223.058594 76.472656 222.796875 76.3125 C 223.023438 75.933594 223.3125 75.652344 223.648438 75.453125 C 223.851562 75.335938 224.074219 75.246094 224.300781 75.1875 C 224.382812 75.167969 224.460938 75.152344 224.542969 75.140625 C 224.488281 74.882812 224.441406 74.621094 224.40625 74.359375 C 224.351562 73.921875 224.316406 73.480469 224.316406 73.035156 C 224.316406 70.402344 225.339844 67.929688 227.191406 66.066406 C 229.046875 64.207031 231.511719 63.179688 234.132812 63.179688 C 236.753906 63.179688 239.21875 64.207031 241.074219 66.066406 C 242.925781 67.929688 243.949219 70.402344 243.949219 73.035156 C 243.949219 74.429688 243.660156 75.777344 243.113281 77.015625 L 246.707031 80.621094 L 257.132812 70.152344 L 258.617188 71.644531 C 258.617188 71.644531 252.949219 79.066406 251.324219 85.257812 L 272.738281 106.757812 L 273.007812 107.03125 L 273.140625 107.164062 L 272.988281 106.257812 L 272.832031 105.335938 C 273.289062 105.257812 273.738281 105.300781 274.148438 105.441406 C 275.050781 105.75 275.757812 106.527344 275.9375 107.53125 L 276.429688 110.324219 L 276.460938 110.496094 L 283.859375 117.929688 C 283.988281 117.492188 284.125 117.039062 284.261719 116.554688 C 284.804688 114.644531 285.464844 112.75 286.140625 110.855469 C 286.089844 110.839844 286.035156 110.824219 285.980469 110.808594 C 285.085938 110.492188 284.382812 109.714844 284.207031 108.710938 L 283.726562 105.917969 L 283.5625 104.980469 C 284.03125 104.898438 284.488281 104.945312 284.90625 105.085938 C 285.816406 105.398438 286.527344 106.183594 286.691406 107.183594 L 286.929688 108.65625 C 286.988281 108.488281 287.050781 108.320312 287.109375 108.148438 C 287.195312 107.910156 287.277344 107.671875 287.363281 107.433594 C 287.414062 107.285156 287.464844 107.132812 287.515625 106.984375 L 287.332031 105.832031 L 287.179688 104.886719 C 287.53125 104.832031 287.878906 104.847656 288.203125 104.921875 C 289.515625 100.8125 290.449219 96.632812 290.046875 92.242188 L 286.386719 94.023438 L 285.914062 81.976562 C 285.863281 81.941406 285.820312 81.902344 285.765625 81.871094 C 285.816406 81.878906 285.863281 81.894531 285.914062 81.902344 L 285.78125 78.546875 L 297.515625 88.601562 L 293.472656 90.574219 C 295.105469 95.09375 295.265625 100.058594 294.578125 104.871094 C 295.015625 104.835938 295.441406 104.90625 295.824219 105.058594 C 296.726562 105.425781 297.394531 106.257812 297.488281 107.273438 L 297.746094 110.121094 L 297.828125 111.039062 C 297.371094 111.082031 296.9375 111.007812 296.542969 110.835938 C 296.3125 110.734375 296.09375 110.601562 295.898438 110.4375 C 295.375 110.011719 295 109.378906 294.917969 108.640625 L 294.582031 105.839844 L 294.515625 105.277344 C 294.449219 105.710938 294.375 106.140625 294.296875 106.570312 C 294.210938 107.046875 294.117188 107.523438 294.015625 107.996094 C 294.007812 108.023438 294 108.050781 293.996094 108.078125 L 294.230469 109.996094 L 294.339844 110.914062 C 294.003906 110.953125 293.679688 110.925781 293.367188 110.847656 C 292.066406 116.453125 290.664062 121.894531 290.183594 127.636719 C 290.132812 128.152344 290.097656 128.675781 290.074219 129.210938 C 289.546875 129.230469 289.023438 129.269531 288.507812 129.320312 C 281.828125 129.875 275.558594 131.707031 268.953125 133.160156 C 263.226562 134.417969 257.082031 134.617188 251.597656 132.617188 L 249.636719 136.679688 L 239.621094 124.898438 L 242.960938 125.027344 C 242.953125 124.980469 242.9375 124.933594 242.933594 124.882812 " fill-opacity="1" fill-rule="nonzero"/></g><path fill="#cc0000" d="M 298.027344 124.335938 C 298.089844 124.039062 298.152344 123.742188 298.214844 123.449219 C 298.65625 123.535156 299.046875 123.734375 299.367188 124.007812 C 299.558594 124.171875 299.722656 124.359375 299.863281 124.570312 C 300.238281 125.125 300.414062 125.839844 300.292969 126.574219 C 300.136719 127.496094 299.988281 128.421875 299.84375 129.34375 C 299.792969 129.667969 299.738281 129.992188 299.6875 130.316406 C 299.207031 130.226562 298.773438 130.027344 298.414062 129.75 C 298.203125 129.585938 298.019531 129.394531 297.871094 129.179688 C 297.464844 128.597656 297.292969 127.875 297.441406 127.148438 C 297.628906 126.207031 297.828125 125.273438 298.027344 124.335938 " fill-opacity="1" fill-rule="nonzero"/><path fill="#cc0000" d="M 301.320312 125.46875 C 301.367188 125.164062 301.417969 124.855469 301.46875 124.550781 C 301.914062 124.613281 302.3125 124.792969 302.644531 125.054688 C 302.84375 125.207031 303.019531 125.386719 303.167969 125.589844 C 303.570312 126.125 303.785156 126.828125 303.695312 127.566406 C 303.585938 128.503906 303.484375 129.441406 303.382812 130.382812 C 303.347656 130.699219 303.3125 131.015625 303.28125 131.335938 C 302.792969 131.269531 302.351562 131.09375 301.980469 130.832031 C 301.761719 130.679688 301.570312 130.5 301.410156 130.292969 C 300.972656 129.730469 300.765625 129.019531 300.878906 128.285156 C 301.019531 127.34375 301.167969 126.40625 301.320312 125.46875 " fill-opacity="1" fill-rule="nonzero"/><path fill="#cc0000" d="M 304.667969 126.414062 C 304.703125 126.105469 304.734375 125.796875 304.769531 125.488281 C 305.21875 125.53125 305.625 125.6875 305.972656 125.929688 C 306.179688 126.074219 306.363281 126.246094 306.519531 126.441406 C 306.949219 126.957031 307.199219 127.648438 307.148438 128.390625 C 307.082031 129.332031 307.027344 130.273438 306.972656 131.214844 C 306.953125 131.535156 306.9375 131.855469 306.917969 132.171875 C 306.429688 132.132812 305.976562 131.980469 305.59375 131.738281 C 305.367188 131.597656 305.167969 131.421875 304.996094 131.226562 C 304.535156 130.6875 304.292969 129.984375 304.367188 129.246094 C 304.460938 128.300781 304.5625 127.359375 304.667969 126.414062 " fill-opacity="1" fill-rule="nonzero"/><path fill="#cc0000" d="M 308.117188 126.261719 C 308.566406 126.28125 308.980469 126.417969 309.339844 126.640625 C 309.550781 126.773438 309.742188 126.9375 309.910156 127.125 C 310.367188 127.617188 310.648438 128.296875 310.632812 129.039062 C 310.617188 129.980469 310.609375 130.925781 310.601562 131.871094 C 310.597656 132.191406 310.597656 132.507812 310.59375 132.828125 C 310.105469 132.8125 309.644531 132.683594 309.246094 132.457031 C 309.015625 132.328125 308.808594 132.167969 308.628906 131.976562 C 308.140625 131.464844 307.863281 130.777344 307.898438 130.035156 C 307.949219 129.085938 308 128.136719 308.058594 127.1875 C 308.078125 126.878906 308.097656 126.570312 308.117188 126.261719 " fill-opacity="1" fill-rule="nonzero"/><path fill="#cc0000" d="M 311.496094 126.863281 C 311.945312 126.859375 312.367188 126.976562 312.734375 127.179688 C 312.953125 127.304688 313.15625 127.453125 313.332031 127.632812 C 313.8125 128.101562 314.125 128.765625 314.148438 129.507812 C 314.179688 130.453125 314.21875 131.394531 314.257812 132.339844 C 314.273438 132.65625 314.285156 132.976562 314.300781 133.296875 C 313.808594 133.304688 313.34375 133.199219 312.933594 132.996094 C 312.699219 132.878906 312.480469 132.726562 312.292969 132.546875 C 311.78125 132.058594 311.46875 131.386719 311.46875 130.644531 C 311.46875 129.691406 311.476562 128.742188 311.484375 127.792969 C 311.488281 127.484375 311.492188 127.171875 311.496094 126.863281 " fill-opacity="1" fill-rule="nonzero"/><path fill="#cc0000" d="M 316.773438 127.96875 C 317.273438 128.414062 317.621094 129.0625 317.683594 129.800781 C 317.761719 130.742188 317.847656 131.683594 317.933594 132.621094 C 317.964844 132.941406 317.992188 133.257812 318.023438 133.578125 C 317.535156 133.609375 317.0625 133.527344 316.648438 133.347656 C 316.40625 133.242188 316.179688 133.101562 315.984375 132.929688 C 315.445312 132.46875 315.097656 131.8125 315.0625 131.070312 C 315.015625 130.121094 314.972656 129.171875 314.9375 128.222656 C 314.925781 127.910156 314.910156 127.601562 314.902344 127.292969 C 315.347656 127.269531 315.777344 127.363281 316.15625 127.546875 C 316.378906 127.65625 316.585938 127.800781 316.773438 127.96875 " fill-opacity="1" fill-rule="nonzero"/><path fill="#cc0000" d="M 319.585938 127.742188 C 319.816406 127.839844 320.03125 127.972656 320.226562 128.132812 C 320.75 128.550781 321.128906 129.179688 321.226562 129.914062 C 321.351562 130.851562 321.484375 131.785156 321.621094 132.71875 C 321.667969 133.035156 321.710938 133.351562 321.757812 133.667969 C 321.273438 133.726562 320.796875 133.667969 320.371094 133.507812 C 320.125 133.414062 319.894531 133.285156 319.6875 133.125 C 319.125 132.691406 318.746094 132.054688 318.675781 131.316406 C 318.578125 130.367188 318.488281 129.425781 318.40625 128.476562 C 318.378906 128.167969 318.347656 127.859375 318.320312 127.546875 C 318.769531 127.503906 319.199219 127.574219 319.585938 127.742188 " fill-opacity="1" fill-rule="nonzero"/><path fill="#cc0000" d="M 323.023438 127.761719 C 323.257812 127.847656 323.480469 127.96875 323.679688 128.117188 C 324.226562 128.507812 324.636719 129.117188 324.773438 129.847656 C 324.945312 130.773438 325.125 131.699219 325.308594 132.625 C 325.371094 132.9375 325.433594 133.253906 325.496094 133.566406 C 325.011719 133.648438 324.535156 133.617188 324.101562 133.480469 C 323.847656 133.398438 323.609375 133.28125 323.398438 133.128906 C 322.816406 132.726562 322.40625 132.109375 322.292969 131.375 C 322.148438 130.433594 322.015625 129.496094 321.882812 128.554688 C 321.839844 128.246094 321.792969 127.941406 321.75 127.632812 C 322.195312 127.5625 322.628906 127.613281 323.023438 127.761719 " fill-opacity="1" fill-rule="nonzero"/><path fill="#cc0000" d="M 325.179688 127.539062 C 325.363281 127.507812 325.503906 127.488281 325.660156 127.488281 C 325.8125 127.488281 325.960938 127.503906 326.109375 127.53125 C 326.179688 127.546875 326.25 127.566406 326.320312 127.589844 C 326.539062 127.65625 326.746094 127.753906 326.945312 127.882812 C 327.464844 128.214844 327.9375 128.753906 328.199219 129.445312 C 328.527344 130.328125 328.882812 131.210938 329.265625 132.082031 C 329.394531 132.371094 329.523438 132.65625 329.660156 132.941406 C 329.117188 133.15625 328.566406 133.210938 328.058594 133.144531 C 327.761719 133.101562 327.484375 133.019531 327.234375 132.898438 C 326.554688 132.566406 326.078125 131.976562 325.921875 131.246094 C 325.710938 130.324219 325.535156 129.398438 325.355469 128.46875 C 325.296875 128.160156 325.238281 127.851562 325.179688 127.539062 " fill-opacity="1" fill-rule="nonzero"/><path fill="#cc0000" d="M 328.441406 127.988281 C 328.320312 127.699219 328.203125 127.410156 328.089844 127.117188 C 328.421875 126.964844 328.738281 126.914062 329.0625 126.945312 C 329.25 126.964844 329.441406 127.011719 329.640625 127.089844 C 329.898438 127.183594 330.1875 127.339844 330.449219 127.515625 C 330.722656 127.695312 331 127.925781 331.246094 128.203125 C 331.871094 128.910156 332.535156 129.578125 333.25 130.207031 C 333.488281 130.414062 333.730469 130.621094 333.980469 130.820312 C 333.78125 131.007812 333.570312 131.191406 333.347656 131.324219 C 333.125 131.453125 332.898438 131.566406 332.671875 131.652344 C 332.554688 131.6875 332.4375 131.71875 332.320312 131.746094 C 331.988281 131.820312 331.664062 131.847656 331.367188 131.800781 C 331.164062 131.777344 330.972656 131.730469 330.792969 131.667969 C 330.617188 131.597656 330.453125 131.507812 330.300781 131.402344 C 330.003906 131.1875 329.769531 130.910156 329.605469 130.578125 C 329.1875 129.722656 328.800781 128.859375 328.441406 127.988281 " fill-opacity="1" fill-rule="nonzero"/><g clip-path="url(#7542921953)"><path fill="#cc0000" d="M 330.84375 126.816406 C 330.617188 126.597656 330.398438 126.375 330.179688 126.144531 C 330.320312 125.941406 330.488281 125.851562 330.722656 125.800781 C 330.855469 125.769531 331.011719 125.753906 331.199219 125.742188 C 331.433594 125.714844 331.726562 125.703125 332.058594 125.707031 C 332.367188 125.695312 332.722656 125.710938 333.085938 125.777344 C 333.703125 125.890625 334.328125 125.972656 334.964844 126.027344 C 335.277344 126.054688 335.59375 126.070312 335.90625 126.082031 C 336.222656 126.089844 336.539062 126.09375 336.855469 126.089844 C 336.769531 126.824219 336.464844 127.515625 336.039062 128.03125 C 335.796875 128.324219 335.515625 128.5625 335.214844 128.722656 C 335.113281 128.78125 335.015625 128.832031 334.914062 128.875 C 334.8125 128.910156 334.707031 128.941406 334.605469 128.96875 C 334.402344 129.015625 334.203125 129.035156 334.015625 129.027344 C 333.636719 129.015625 333.28125 128.863281 332.984375 128.648438 C 332.21875 128.082031 331.511719 127.472656 330.84375 126.816406 " fill-opacity="1" fill-rule="nonzero"/></g><g clip-path="url(#2ad4178a3b)"><path fill="#cc0000" d="M 335.75 124.65625 C 335.4375 124.886719 335.089844 125.007812 334.722656 125.027344 C 333.785156 125.082031 332.832031 125.066406 331.894531 124.976562 C 331.582031 124.949219 331.273438 124.914062 330.96875 124.871094 C 330.949219 124.785156 330.980469 124.710938 330.988281 124.632812 C 331 124.558594 331.03125 124.488281 331.085938 124.410156 C 331.105469 124.371094 331.128906 124.332031 331.160156 124.289062 C 331.242188 124.171875 331.367188 124.050781 331.484375 123.90625 C 331.570312 123.8125 331.675781 123.714844 331.789062 123.609375 C 331.886719 123.507812 332 123.402344 332.125 123.296875 C 332.375 123.085938 332.671875 122.875 332.996094 122.710938 C 333.832031 122.285156 334.648438 121.808594 335.441406 121.285156 C 335.707031 121.109375 335.96875 120.929688 336.226562 120.746094 C 336.566406 121.3125 336.710938 121.988281 336.691406 122.617188 C 336.679688 122.992188 336.609375 123.351562 336.480469 123.664062 C 336.304688 124.089844 336.070312 124.425781 335.75 124.65625 " fill-opacity="1" fill-rule="nonzero"/></g><path fill="#cc0000" d="M 333.890625 121.148438 C 333.125 121.71875 332.351562 122.246094 331.542969 122.730469 C 331.277344 122.890625 331.007812 123.042969 330.734375 123.195312 C 330.5625 122.972656 330.472656 122.695312 330.445312 122.375 C 330.429688 122.183594 330.4375 121.976562 330.464844 121.757812 C 330.539062 121.171875 330.777344 120.496094 331.246094 119.929688 C 331.851562 119.207031 332.441406 118.460938 333.007812 117.699219 C 333.195312 117.445312 333.378906 117.191406 333.5625 116.933594 C 334.007812 117.296875 334.34375 117.769531 334.546875 118.269531 C 334.660156 118.5625 334.734375 118.867188 334.75 119.167969 C 334.808594 119.984375 334.492188 120.707031 333.890625 121.148438 " fill-opacity="1" fill-rule="nonzero"/><path fill="#cc0000" d="M 331.539062 118.144531 C 330.984375 118.945312 330.40625 119.722656 329.8125 120.484375 C 329.632812 120.710938 329.460938 120.941406 329.277344 121.167969 C 328.980469 120.953125 328.753906 120.671875 328.59375 120.335938 C 328.503906 120.136719 328.433594 119.921875 328.390625 119.691406 C 328.328125 119.386719 328.320312 119.050781 328.363281 118.714844 C 328.402344 118.378906 328.5 118.03125 328.664062 117.699219 C 329.085938 116.851562 329.488281 115.996094 329.882812 115.140625 C 330.015625 114.855469 330.148438 114.566406 330.277344 114.28125 C 330.371094 114.320312 330.457031 114.367188 330.542969 114.417969 C 330.628906 114.472656 330.71875 114.535156 330.800781 114.601562 C 330.964844 114.730469 331.121094 114.867188 331.253906 115.023438 C 331.324219 115.105469 331.386719 115.1875 331.445312 115.273438 C 331.617188 115.515625 331.75 115.777344 331.832031 116.046875 C 331.949219 116.40625 331.980469 116.785156 331.933594 117.144531 C 331.882812 117.5 331.753906 117.835938 331.539062 118.144531 " fill-opacity="1" fill-rule="nonzero"/><path fill="#cc0000" d="M 327.375 118.496094 C 327.246094 118.773438 327.117188 119.050781 326.984375 119.328125 C 326.582031 119.152344 326.253906 118.878906 326.011719 118.542969 C 325.867188 118.34375 325.75 118.125 325.664062 117.890625 C 325.421875 117.277344 325.394531 116.550781 325.664062 115.855469 C 326.003906 114.980469 326.335938 114.101562 326.664062 113.21875 C 326.773438 112.914062 326.886719 112.613281 326.996094 112.3125 C 327.367188 112.460938 327.691406 112.671875 327.960938 112.925781 C 328.03125 112.992188 328.097656 113.058594 328.160156 113.132812 C 328.21875 113.199219 328.273438 113.265625 328.324219 113.335938 C 328.425781 113.492188 328.511719 113.652344 328.582031 113.820312 C 328.863281 114.484375 328.878906 115.230469 328.570312 115.90625 C 328.179688 116.773438 327.78125 117.636719 327.375 118.496094 " fill-opacity="1" fill-rule="nonzero"/><path fill="#cc0000" d="M 324.441406 116.742188 C 324.332031 117.03125 324.222656 117.320312 324.113281 117.609375 C 323.707031 117.445312 323.359375 117.203125 323.082031 116.894531 C 322.921875 116.710938 322.785156 116.507812 322.679688 116.28125 C 322.390625 115.679688 322.316406 114.945312 322.53125 114.230469 C 322.804688 113.332031 323.066406 112.429688 323.324219 111.527344 C 323.410156 111.21875 323.5 110.914062 323.589844 110.605469 C 323.777344 110.660156 323.960938 110.730469 324.128906 110.820312 C 324.292969 110.914062 324.449219 111.023438 324.589844 111.144531 C 324.664062 111.207031 324.734375 111.269531 324.800781 111.339844 C 324.992188 111.535156 325.152344 111.753906 325.277344 111.984375 C 325.613281 112.613281 325.6875 113.347656 325.433594 114.054688 C 325.109375 114.957031 324.777344 115.851562 324.441406 116.742188 " fill-opacity="1" fill-rule="nonzero"/><path fill="#cc0000" d="M 321.371094 115.21875 C 321.285156 115.511719 321.199219 115.808594 321.113281 116.105469 C 320.6875 115.992188 320.320312 115.765625 320.027344 115.472656 C 319.851562 115.296875 319.703125 115.097656 319.578125 114.878906 C 319.242188 114.308594 319.109375 113.589844 319.273438 112.863281 C 319.480469 111.945312 319.679688 111.027344 319.875 110.105469 C 319.941406 109.789062 320.011719 109.476562 320.074219 109.160156 C 320.558594 109.277344 320.988281 109.5 321.335938 109.800781 C 321.539062 109.976562 321.714844 110.179688 321.851562 110.40625 C 322.230469 111.019531 322.351562 111.757812 322.15625 112.472656 C 321.902344 113.390625 321.640625 114.304688 321.371094 115.21875 " fill-opacity="1" fill-rule="nonzero"/><path fill="#cc0000" d="M 317.507812 114.660156 C 317.347656 114.597656 317.203125 114.515625 317.0625 114.421875 C 316.992188 114.375 316.925781 114.320312 316.859375 114.265625 C 316.671875 114.109375 316.507812 113.921875 316.367188 113.714844 C 316 113.152344 315.820312 112.433594 315.933594 111.707031 C 316.078125 110.78125 316.21875 109.847656 316.351562 108.917969 C 316.398438 108.601562 316.445312 108.285156 316.488281 107.96875 C 316.980469 108.035156 317.417969 108.234375 317.78125 108.519531 C 317.996094 108.6875 318.179688 108.878906 318.335938 109.09375 C 318.753906 109.671875 318.929688 110.386719 318.78125 111.113281 C 318.59375 112.050781 318.394531 112.984375 318.191406 113.917969 C 318.125 114.21875 318.0625 114.523438 317.996094 114.824219 C 317.824219 114.785156 317.660156 114.726562 317.507812 114.660156 " fill-opacity="1" fill-rule="nonzero"/><path fill="#cc0000" d="M 313.078125 112.742188 C 312.667969 112.214844 312.445312 111.515625 312.515625 110.773438 C 312.609375 109.835938 312.691406 108.894531 312.773438 107.957031 C 312.800781 107.636719 312.828125 107.316406 312.855469 106.996094 C 313.34375 107.050781 313.792969 107.222656 314.171875 107.476562 C 314.394531 107.625 314.589844 107.800781 314.757812 108.003906 C 315.207031 108.558594 315.425781 109.273438 315.324219 110.011719 C 315.195312 110.953125 315.058594 111.894531 314.917969 112.835938 C 314.871094 113.144531 314.828125 113.449219 314.78125 113.753906 C 314.339844 113.699219 313.949219 113.519531 313.617188 113.269531 C 313.414062 113.117188 313.234375 112.9375 313.078125 112.742188 " fill-opacity="1" fill-rule="nonzero"/><path fill="#cc0000" d="M 311.574219 111.949219 C 311.542969 112.257812 311.519531 112.566406 311.488281 112.875 C 311.046875 112.84375 310.636719 112.695312 310.285156 112.464844 C 309.511719 111.957031 309.015625 111.039062 309.050781 110.03125 C 309.09375 109.089844 309.128906 108.148438 309.15625 107.203125 C 309.167969 106.886719 309.179688 106.566406 309.191406 106.246094 C 309.578125 106.265625 309.945312 106.355469 310.277344 106.503906 C 310.359375 106.546875 310.441406 106.59375 310.523438 106.640625 C 310.75 106.785156 310.957031 106.953125 311.132812 107.148438 C 311.613281 107.671875 311.871094 108.367188 311.8125 109.105469 C 311.738281 110.050781 311.65625 111 311.574219 111.949219 " fill-opacity="1" fill-rule="nonzero"/><path fill="#cc0000" d="M 308.132812 112.1875 C 307.777344 112.175781 307.4375 112.09375 307.132812 111.945312 C 307.058594 111.910156 306.984375 111.871094 306.914062 111.832031 C 306.691406 111.707031 306.492188 111.550781 306.316406 111.367188 C 305.847656 110.878906 305.550781 110.207031 305.550781 109.460938 C 305.546875 108.527344 305.53125 107.589844 305.519531 106.648438 C 305.515625 106.324219 305.515625 105.996094 305.507812 105.671875 C 305.996094 105.675781 306.453125 105.800781 306.851562 106.011719 C 307.085938 106.136719 307.300781 106.296875 307.488281 106.476562 C 307.988281 106.964844 308.28125 107.667969 308.261719 108.40625 C 308.234375 109.355469 308.203125 110.308594 308.167969 111.257812 C 308.15625 111.566406 308.144531 111.878906 308.132812 112.1875 " fill-opacity="1" fill-rule="nonzero"/><path fill="#cc0000" d="M 302.871094 110.921875 C 302.382812 110.445312 302.054688 109.800781 302.019531 109.054688 C 301.976562 108.121094 301.925781 107.183594 301.875 106.246094 C 301.855469 105.921875 301.84375 105.597656 301.824219 105.273438 C 302.308594 105.25 302.773438 105.351562 303.179688 105.550781 C 303.417969 105.664062 303.636719 105.8125 303.824219 105.992188 C 304.34375 106.46875 304.667969 107.132812 304.683594 107.878906 C 304.699219 108.832031 304.710938 109.789062 304.722656 110.742188 C 304.722656 111.046875 304.730469 111.351562 304.734375 111.65625 C 304.28125 111.667969 303.851562 111.5625 303.476562 111.363281 C 303.257812 111.246094 303.050781 111.09375 302.871094 110.921875 " fill-opacity="1" fill-rule="nonzero"/><path fill="#cc0000" d="M 300.265625 111.132812 C 300.183594 111.101562 300.101562 111.070312 300.023438 111.035156 C 299.796875 110.925781 299.585938 110.789062 299.394531 110.621094 C 298.886719 110.171875 298.535156 109.523438 298.472656 108.78125 C 298.394531 107.84375 298.3125 106.910156 298.226562 105.976562 C 298.199219 105.65625 298.171875 105.332031 298.140625 105.011719 C 298.625 104.972656 299.085938 105.058594 299.496094 105.238281 C 300.390625 105.632812 301.035156 106.480469 301.089844 107.503906 C 301.144531 108.460938 301.195312 109.414062 301.242188 110.371094 C 301.257812 110.675781 301.277344 110.980469 301.292969 111.285156 C 300.933594 111.304688 300.585938 111.246094 300.265625 111.132812 " fill-opacity="1" fill-rule="nonzero"/><path fill="#cc0000" d="M 283.746094 111.011719 C 283.289062 111.089844 282.839844 111.050781 282.429688 110.910156 C 281.523438 110.605469 280.808594 109.832031 280.632812 108.828125 L 280.132812 106.035156 L 279.96875 105.101562 C 280.433594 105.019531 280.890625 105.058594 281.308594 105.199219 C 282.210938 105.507812 282.925781 106.28125 283.101562 107.285156 L 283.585938 110.085938 L 283.746094 111.011719 " fill-opacity="1" fill-rule="nonzero"/><path fill="#cc0000" d="M 280.179688 111.132812 C 279.71875 111.214844 279.261719 111.175781 278.847656 111.035156 C 277.941406 110.730469 277.226562 109.957031 277.050781 108.953125 L 276.554688 106.152344 L 276.390625 105.226562 C 276.851562 105.144531 277.300781 105.1875 277.714844 105.324219 C 278.621094 105.628906 279.339844 106.402344 279.515625 107.40625 L 280.015625 110.203125 L 280.179688 111.132812 " fill-opacity="1" fill-rule="nonzero"/><path fill="#cc0000" d="M 260.703125 105.789062 C 261.222656 106.230469 261.582031 106.871094 261.660156 107.613281 L 261.957031 110.414062 L 262.058594 111.375 C 261.582031 111.429688 261.121094 111.347656 260.707031 111.175781 C 260.460938 111.070312 260.234375 110.933594 260.035156 110.773438 C 259.492188 110.332031 259.128906 109.6875 259.070312 108.941406 C 258.992188 107.988281 258.921875 107.035156 258.855469 106.082031 C 258.832031 105.777344 258.808594 105.46875 258.785156 105.164062 C 259.238281 105.136719 259.671875 105.21875 260.0625 105.390625 C 260.292969 105.492188 260.507812 105.628906 260.703125 105.789062 " fill-opacity="1" fill-rule="nonzero"/><path fill="#cc0000" d="M 258.105469 107.410156 C 258.167969 108.347656 258.242188 109.28125 258.3125 110.21875 C 258.335938 110.542969 258.355469 110.863281 258.382812 111.1875 C 257.898438 111.222656 257.4375 111.132812 257.027344 110.941406 C 256.140625 110.53125 255.507812 109.664062 255.46875 108.648438 C 255.429688 107.691406 255.398438 106.738281 255.367188 105.78125 C 255.359375 105.476562 255.34375 105.175781 255.335938 104.871094 C 255.789062 104.847656 256.214844 104.945312 256.597656 105.136719 C 256.820312 105.25 257.027344 105.394531 257.214844 105.566406 C 257.714844 106.023438 258.054688 106.667969 258.105469 107.410156 " fill-opacity="1" fill-rule="nonzero"/><path fill="#cc0000" d="M 252.929688 104.636719 C 253.007812 104.667969 253.085938 104.707031 253.160156 104.746094 C 253.378906 104.867188 253.582031 105.015625 253.761719 105.195312 C 254.238281 105.671875 254.550781 106.339844 254.570312 107.085938 C 254.59375 108.027344 254.625 108.972656 254.65625 109.917969 C 254.667969 110.234375 254.679688 110.554688 254.691406 110.871094 C 254.203125 110.878906 253.742188 110.765625 253.339844 110.5625 C 252.464844 110.113281 251.871094 109.226562 251.882812 108.199219 C 251.886719 107.242188 251.898438 106.28125 251.914062 105.324219 C 251.917969 105.023438 251.917969 104.71875 251.921875 104.414062 C 252.28125 104.417969 252.621094 104.496094 252.929688 104.636719 " fill-opacity="1" fill-rule="nonzero"/><path fill="#cc0000" d="M 248.546875 103.808594 C 248.992188 103.832031 249.40625 103.96875 249.765625 104.191406 C 249.976562 104.324219 250.167969 104.488281 250.335938 104.675781 C 250.785156 105.1875 251.070312 105.847656 251.054688 106.59375 C 251.035156 107.527344 251.027344 108.464844 251.015625 109.398438 C 251.011719 109.726562 251.003906 110.050781 251 110.378906 C 250.613281 110.371094 250.246094 110.289062 249.910156 110.144531 C 249.824219 110.105469 249.738281 110.058594 249.652344 110.011719 C 249.425781 109.878906 249.21875 109.710938 249.039062 109.523438 C 248.550781 109.011719 248.273438 108.324219 248.316406 107.582031 C 248.367188 106.632812 248.421875 105.6875 248.484375 104.738281 C 248.503906 104.429688 248.523438 104.121094 248.546875 103.808594 " fill-opacity="1" fill-rule="nonzero"/><path fill="#cc0000" d="M 245.222656 103.015625 C 245.664062 103.0625 246.0625 103.226562 246.402344 103.46875 C 246.609375 103.613281 246.792969 103.789062 246.957031 103.980469 C 247.378906 104.5 247.625 105.191406 247.570312 105.933594 C 247.5 106.875 247.441406 107.816406 247.382812 108.761719 C 247.363281 109.082031 247.34375 109.398438 247.324219 109.71875 C 246.835938 109.675781 246.386719 109.519531 246.003906 109.273438 C 245.777344 109.128906 245.574219 108.957031 245.402344 108.761719 C 244.9375 108.226562 244.703125 107.507812 244.785156 106.773438 C 244.886719 105.824219 244.996094 104.882812 245.109375 103.9375 C 245.148438 103.628906 245.183594 103.320312 245.222656 103.015625 " fill-opacity="1" fill-rule="nonzero"/><path fill="#cc0000" d="M 241.960938 102.042969 C 242.398438 102.125 242.792969 102.304688 243.121094 102.5625 C 243.3125 102.714844 243.484375 102.894531 243.628906 103.101562 C 243.824219 103.378906 243.96875 103.695312 244.058594 104.03125 C 244.148438 104.363281 244.175781 104.722656 244.128906 105.089844 C 244.007812 106.023438 243.894531 106.957031 243.789062 107.894531 C 243.75 108.210938 243.714844 108.53125 243.679688 108.847656 C 243.289062 108.796875 242.929688 108.683594 242.609375 108.496094 C 242.53125 108.445312 242.449219 108.394531 242.375 108.339844 C 242.160156 108.175781 241.964844 107.988281 241.804688 107.78125 C 241.375 107.214844 241.175781 106.5 241.296875 105.769531 C 241.457031 104.835938 241.621094 103.898438 241.792969 102.960938 C 241.847656 102.652344 241.90625 102.347656 241.960938 102.042969 " fill-opacity="1" fill-rule="nonzero"/><path fill="#cc0000" d="M 238.5625 101.765625 C 238.636719 101.464844 238.710938 101.164062 238.789062 100.867188 C 239.128906 100.945312 239.4375 101.097656 239.703125 101.300781 C 239.769531 101.347656 239.832031 101.402344 239.894531 101.460938 C 239.957031 101.515625 240.015625 101.578125 240.070312 101.640625 C 240.179688 101.761719 240.285156 101.890625 240.375 102.035156 C 240.730469 102.597656 240.886719 103.3125 240.75 104.042969 C 240.570312 104.96875 240.402344 105.894531 240.238281 106.824219 C 240.179688 107.140625 240.125 107.457031 240.070312 107.773438 C 239.585938 107.671875 239.152344 107.460938 238.796875 107.171875 C 238.585938 107.003906 238.402344 106.808594 238.257812 106.59375 C 237.859375 105.992188 237.710938 105.261719 237.882812 104.535156 C 238.101562 103.609375 238.328125 102.683594 238.5625 101.765625 " fill-opacity="1" fill-rule="nonzero"/><path fill="#cc0000" d="M 235.425781 100.363281 C 235.523438 100.070312 235.617188 99.777344 235.714844 99.484375 C 235.882812 99.539062 236.035156 99.609375 236.179688 99.699219 C 236.328125 99.777344 236.46875 99.871094 236.59375 99.976562 C 236.660156 100.03125 236.722656 100.089844 236.78125 100.152344 C 236.949219 100.328125 237.097656 100.53125 237.210938 100.75 C 237.519531 101.34375 237.625 102.078125 237.441406 102.789062 C 237.203125 103.699219 236.976562 104.609375 236.75 105.523438 C 236.675781 105.835938 236.597656 106.144531 236.523438 106.457031 C 236.039062 106.34375 235.621094 106.09375 235.285156 105.777344 C 235.089844 105.585938 234.921875 105.375 234.789062 105.144531 C 234.429688 104.527344 234.324219 103.800781 234.546875 103.089844 C 234.832031 102.175781 235.125 101.269531 235.425781 100.363281 " fill-opacity="1" fill-rule="nonzero"/><path fill="#cc0000" d="M 232.414062 98.730469 C 232.535156 98.449219 232.652344 98.164062 232.769531 97.882812 C 233.179688 98.039062 233.515625 98.304688 233.773438 98.628906 C 233.929688 98.820312 234.054688 99.035156 234.152344 99.261719 C 234.425781 99.863281 234.480469 100.59375 234.242188 101.296875 C 233.9375 102.1875 233.644531 103.082031 233.355469 103.976562 C 233.253906 104.285156 233.152344 104.589844 233.058594 104.894531 C 232.585938 104.726562 232.175781 104.457031 231.863281 104.121094 C 231.675781 103.921875 231.527344 103.703125 231.410156 103.464844 C 231.101562 102.808594 231.058594 102.066406 231.335938 101.375 C 231.6875 100.488281 232.046875 99.609375 232.414062 98.730469 " fill-opacity="1" fill-rule="nonzero"/><path fill="#cc0000" d="M 229.554688 96.871094 C 229.695312 96.601562 229.835938 96.328125 229.980469 96.054688 C 230.359375 96.261719 230.675781 96.542969 230.910156 96.878906 C 231.050781 97.078125 231.164062 97.296875 231.242188 97.53125 C 231.457031 98.164062 231.449219 98.902344 231.15625 99.585938 C 230.78125 100.449219 230.421875 101.3125 230.066406 102.183594 C 229.945312 102.480469 229.824219 102.773438 229.703125 103.070312 C 229.519531 102.996094 229.34375 102.90625 229.1875 102.796875 C 229.03125 102.683594 228.890625 102.554688 228.761719 102.417969 C 228.695312 102.347656 228.632812 102.277344 228.574219 102.199219 C 228.40625 101.984375 228.269531 101.75 228.171875 101.503906 C 227.90625 100.839844 227.917969 100.101562 228.253906 99.425781 C 228.679688 98.570312 229.113281 97.71875 229.554688 96.871094 " fill-opacity="1" fill-rule="nonzero"/><path fill="#cc0000" d="M 226.859375 94.785156 C 227.023438 94.527344 227.1875 94.269531 227.351562 94.011719 C 227.726562 94.234375 228.015625 94.542969 228.214844 94.90625 C 228.335938 95.121094 228.421875 95.351562 228.476562 95.59375 C 228.644531 96.230469 228.582031 96.953125 228.234375 97.609375 C 227.792969 98.4375 227.359375 99.273438 226.933594 100.113281 C 226.785156 100.398438 226.636719 100.683594 226.496094 100.972656 C 226.144531 100.78125 225.84375 100.53125 225.601562 100.246094 C 225.542969 100.171875 225.484375 100.09375 225.429688 100.015625 C 225.378906 99.941406 225.332031 99.867188 225.289062 99.792969 C 225.207031 99.628906 225.140625 99.457031 225.089844 99.28125 C 224.890625 98.585938 224.96875 97.84375 225.355469 97.210938 C 225.847656 96.394531 226.351562 95.589844 226.859375 94.785156 " fill-opacity="1" fill-rule="nonzero"/><path fill="#cc0000" d="M 222.640625 94.761719 C 223.214844 93.984375 223.800781 93.226562 224.398438 92.472656 C 224.582031 92.242188 224.761719 92.003906 224.949219 91.777344 C 225.265625 92.019531 225.527344 92.34375 225.703125 92.710938 C 225.804688 92.929688 225.878906 93.164062 225.914062 93.410156 C 226.015625 94.0625 225.882812 94.789062 225.480469 95.414062 C 224.964844 96.203125 224.460938 96.996094 223.96875 97.792969 C 223.796875 98.0625 223.625 98.335938 223.457031 98.609375 C 223.109375 98.402344 222.851562 98.105469 222.640625 97.796875 C 222.585938 97.714844 222.535156 97.632812 222.492188 97.550781 C 222.359375 97.308594 222.265625 97.050781 222.210938 96.789062 C 222.136719 96.441406 222.132812 96.082031 222.199219 95.742188 C 222.273438 95.390625 222.417969 95.058594 222.640625 94.761719 " fill-opacity="1" fill-rule="nonzero"/><path fill="#cc0000" d="M 220.289062 91.804688 C 221.027344 91.214844 221.792969 90.660156 222.582031 90.148438 C 222.84375 89.980469 223.109375 89.8125 223.375 89.652344 C 223.554688 89.878906 223.660156 90.164062 223.703125 90.496094 C 223.726562 90.691406 223.730469 90.902344 223.710938 91.128906 C 223.65625 91.730469 223.433594 92.414062 222.957031 92.980469 C 222.359375 93.695312 221.78125 94.429688 221.210938 95.167969 C 221.007812 95.429688 220.808594 95.6875 220.609375 95.949219 C 220.195312 95.613281 219.875 95.160156 219.679688 94.675781 C 219.5625 94.386719 219.492188 94.089844 219.46875 93.792969 C 219.40625 92.992188 219.703125 92.261719 220.289062 91.804688 " fill-opacity="1" fill-rule="nonzero"/><path fill="#cc0000" d="M 217.875 88.910156 C 217.988281 88.746094 218.117188 88.597656 218.253906 88.476562 C 218.546875 88.230469 218.882812 88.082031 219.246094 88.019531 C 220.171875 87.867188 221.117188 87.765625 222.054688 87.714844 C 222.367188 87.695312 222.679688 87.683594 222.988281 87.679688 C 223.035156 87.960938 222.988281 88.207031 222.863281 88.457031 C 222.792969 88.605469 222.691406 88.753906 222.570312 88.914062 C 222.40625 89.128906 222.210938 89.355469 221.96875 89.582031 C 221.734375 89.808594 221.453125 90.03125 221.128906 90.210938 C 220.3125 90.671875 219.507812 91.179688 218.734375 91.730469 C 218.476562 91.910156 218.222656 92.101562 217.96875 92.289062 C 217.625 91.738281 217.453125 91.089844 217.445312 90.476562 C 217.441406 90.117188 217.492188 89.773438 217.601562 89.46875 C 217.667969 89.265625 217.761719 89.078125 217.875 88.910156 " fill-opacity="1" fill-rule="nonzero"/><g clip-path="url(#ffd907ca65)"><path fill="#cc0000" d="M 217.398438 85.515625 C 217.558594 85.226562 217.757812 84.976562 217.976562 84.78125 C 218.269531 84.503906 218.617188 84.332031 218.964844 84.234375 C 219.324219 84.148438 219.6875 84.152344 220.046875 84.242188 C 220.957031 84.46875 221.867188 84.730469 222.765625 85.019531 C 223.0625 85.113281 223.359375 85.214844 223.652344 85.316406 C 223.5625 85.664062 223.390625 85.945312 223.148438 86.179688 C 223.007812 86.316406 222.84375 86.4375 222.65625 86.546875 C 222.410156 86.691406 222.117188 86.8125 221.800781 86.902344 C 221.480469 86.992188 221.128906 87.050781 220.761719 87.046875 C 219.828125 87.046875 218.875 87.085938 217.929688 87.175781 C 217.617188 87.207031 217.300781 87.242188 216.988281 87.285156 C 216.964844 86.625 217.128906 86.011719 217.398438 85.515625 " fill-opacity="1" fill-rule="nonzero"/></g><path fill="#cc0000" d="M 221.933594 80.984375 C 222.773438 81.441406 223.605469 81.914062 224.429688 82.394531 C 224.691406 82.546875 224.953125 82.695312 225.210938 82.851562 C 225.003906 83.222656 224.742188 83.492188 224.425781 83.683594 C 224.238281 83.800781 224.03125 83.890625 223.808594 83.957031 C 223.511719 84.042969 223.1875 84.085938 222.851562 84.082031 C 222.511719 84.074219 222.160156 84.019531 221.8125 83.890625 C 220.929688 83.574219 220.027344 83.273438 219.121094 83.007812 C 218.820312 82.917969 218.515625 82.832031 218.210938 82.75 C 218.402344 82.191406 218.722656 81.722656 219.113281 81.375 C 219.335938 81.179688 219.578125 81.019531 219.828125 80.910156 C 220.175781 80.75 220.546875 80.683594 220.902344 80.695312 C 221.257812 80.710938 221.609375 80.808594 221.933594 80.984375 " fill-opacity="1" fill-rule="nonzero"/><g fill="#cc0000" fill-opacity="1"><g transform="translate(21.355415, 275.445714)"><g><path d="M 39.65625 1.34375 C 35.71875 1.34375 32.226562 0.769531 29.1875 -0.375 C 26.15625 -1.53125 23.597656 -3.175781 21.515625 -5.3125 C 19.429688 -7.445312 17.851562 -10.035156 16.78125 -13.078125 C 15.71875 -16.117188 15.1875 -19.550781 15.1875 -23.375 L 15.1875 -70.28125 L 7 -70.28125 C 5.757812 -70.28125 4.703125 -70.671875 3.828125 -71.453125 C 2.960938 -72.242188 2.53125 -73.429688 2.53125 -75.015625 L 2.53125 -84.125 L 16.453125 -86.65625 L 21.171875 -109.1875 C 21.796875 -111.71875 23.515625 -112.984375 26.328125 -112.984375 L 38.46875 -112.984375 L 38.46875 -86.484375 L 60.921875 -86.484375 L 60.921875 -70.28125 L 38.46875 -70.28125 L 38.46875 -24.890625 C 38.46875 -22.472656 39.046875 -20.5625 40.203125 -19.15625 C 41.359375 -17.75 43.003906 -17.046875 45.140625 -17.046875 C 46.265625 -17.046875 47.21875 -17.171875 48 -17.421875 C 48.789062 -17.671875 49.46875 -17.953125 50.03125 -18.265625 C 50.59375 -18.578125 51.113281 -18.859375 51.59375 -19.109375 C 52.070312 -19.359375 52.566406 -19.484375 53.078125 -19.484375 C 53.742188 -19.484375 54.300781 -19.328125 54.75 -19.015625 C 55.207031 -18.710938 55.660156 -18.195312 56.109375 -17.46875 L 63.109375 -6.328125 C 59.898438 -3.796875 56.269531 -1.882812 52.21875 -0.59375 C 48.175781 0.695312 43.988281 1.34375 39.65625 1.34375 Z M 39.65625 1.34375 "/></g></g></g><g fill="#cc0000" fill-opacity="1"><g transform="translate(85.058512, 275.445714)"><g><path d="M 85.984375 -86.984375 L 85.984375 0 L 71.640625 0 C 68.648438 0 66.734375 -1.347656 65.890625 -4.046875 L 64.375 -10.125 C 62.632812 -8.4375 60.832031 -6.890625 58.96875 -5.484375 C 57.113281 -4.078125 55.128906 -2.867188 53.015625 -1.859375 C 50.910156 -0.847656 48.632812 -0.0625 46.1875 0.5 C 43.75 1.0625 41.09375 1.34375 38.21875 1.34375 C 33.5 1.34375 29.296875 0.53125 25.609375 -1.09375 C 21.921875 -2.726562 18.835938 -5.003906 16.359375 -7.921875 C 13.890625 -10.847656 12.007812 -14.335938 10.71875 -18.390625 C 9.425781 -22.441406 8.78125 -26.882812 8.78125 -31.71875 L 8.78125 -86.984375 L 32.0625 -86.984375 L 32.0625 -31.71875 C 32.0625 -26.882812 33.171875 -23.128906 35.390625 -20.453125 C 37.617188 -17.785156 40.925781 -16.453125 45.3125 -16.453125 C 48.570312 -16.453125 51.632812 -17.164062 54.5 -18.59375 C 57.375 -20.03125 60.101562 -21.988281 62.6875 -24.46875 L 62.6875 -86.984375 Z M 42.859375 -109.1875 C 42.859375 -107.5 42.519531 -105.921875 41.84375 -104.453125 C 41.175781 -102.992188 40.265625 -101.710938 39.109375 -100.609375 C 37.953125 -99.515625 36.597656 -98.65625 35.046875 -98.03125 C 33.503906 -97.414062 31.863281 -97.109375 30.125 -97.109375 C 28.488281 -97.109375 26.925781 -97.414062 25.4375 -98.03125 C 23.945312 -98.65625 22.640625 -99.515625 21.515625 -100.609375 C 20.390625 -101.710938 19.488281 -102.992188 18.8125 -104.453125 C 18.144531 -105.921875 17.8125 -107.5 17.8125 -109.1875 C 17.8125 -110.875 18.144531 -112.472656 18.8125 -113.984375 C 19.488281 -115.503906 20.390625 -116.84375 21.515625 -118 C 22.640625 -119.15625 23.945312 -120.054688 25.4375 -120.703125 C 26.925781 -121.347656 28.488281 -121.671875 30.125 -121.671875 C 31.863281 -121.671875 33.503906 -121.347656 35.046875 -120.703125 C 36.597656 -120.054688 37.953125 -119.15625 39.109375 -118 C 40.265625 -116.84375 41.175781 -115.503906 41.84375 -113.984375 C 42.519531 -112.472656 42.859375 -110.875 42.859375 -109.1875 Z M 77.875 -109.1875 C 77.875 -107.5 77.535156 -105.921875 76.859375 -104.453125 C 76.191406 -102.992188 75.296875 -101.710938 74.171875 -100.609375 C 73.046875 -99.515625 71.707031 -98.65625 70.15625 -98.03125 C 68.613281 -97.414062 66.96875 -97.109375 65.21875 -97.109375 C 63.53125 -97.109375 61.925781 -97.414062 60.40625 -98.03125 C 58.894531 -98.65625 57.578125 -99.515625 56.453125 -100.609375 C 55.328125 -101.710938 54.441406 -102.992188 53.796875 -104.453125 C 53.148438 -105.921875 52.828125 -107.5 52.828125 -109.1875 C 52.828125 -110.875 53.148438 -112.472656 53.796875 -113.984375 C 54.441406 -115.503906 55.328125 -116.84375 56.453125 -118 C 57.578125 -119.15625 58.894531 -120.054688 60.40625 -120.703125 C 61.925781 -121.347656 63.53125 -121.671875 65.21875 -121.671875 C 66.96875 -121.671875 68.613281 -121.347656 70.15625 -120.703125 C 71.707031 -120.054688 73.046875 -119.15625 74.171875 -118 C 75.296875 -116.84375 76.191406 -115.503906 76.859375 -113.984375 C 77.535156 -112.472656 77.875 -110.875 77.875 -109.1875 Z M 77.875 -109.1875 "/></g></g></g><g fill="#cc0000" fill-opacity="1"><g transform="translate(180.655342, 275.445714)"><g><path d="M 31.46875 -72.640625 C 34.226562 -77.597656 37.40625 -81.507812 41 -84.375 C 44.601562 -87.238281 48.820312 -88.671875 53.65625 -88.671875 C 57.59375 -88.671875 60.800781 -87.742188 63.28125 -85.890625 L 61.765625 -68.6875 C 61.484375 -67.5625 61.046875 -66.785156 60.453125 -66.359375 C 59.859375 -65.941406 59.054688 -65.734375 58.046875 -65.734375 C 57.148438 -65.734375 55.859375 -65.859375 54.171875 -66.109375 C 52.484375 -66.359375 50.90625 -66.484375 49.4375 -66.484375 C 47.300781 -66.484375 45.40625 -66.171875 43.75 -65.546875 C 42.09375 -64.929688 40.613281 -64.0625 39.3125 -62.9375 C 38.019531 -61.8125 36.851562 -60.429688 35.8125 -58.796875 C 34.769531 -57.171875 33.800781 -55.316406 32.90625 -53.234375 L 32.90625 0 L 9.625 0 L 9.625 -86.984375 L 23.375 -86.984375 C 25.738281 -86.984375 27.367188 -86.5625 28.265625 -85.71875 C 29.160156 -84.875 29.804688 -83.414062 30.203125 -81.34375 Z M 31.46875 -72.640625 "/></g></g></g><g fill="#cc0000" fill-opacity="1"><g transform="translate(244.274062, 275.445714)"><g><path d="M 32.90625 -125.796875 L 32.90625 -54.421875 L 36.78125 -54.421875 C 38.25 -54.421875 39.40625 -54.628906 40.25 -55.046875 C 41.09375 -55.472656 41.9375 -56.25 42.78125 -57.375 L 62.015625 -83.03125 C 62.972656 -84.320312 64.054688 -85.300781 65.265625 -85.96875 C 66.472656 -86.644531 68.003906 -86.984375 69.859375 -86.984375 L 91.125 -86.984375 L 66.15625 -55.265625 C 64.1875 -52.617188 61.90625 -50.535156 59.3125 -49.015625 C 60.601562 -48.117188 61.726562 -47.078125 62.6875 -45.890625 C 63.644531 -44.710938 64.570312 -43.394531 65.46875 -41.9375 L 92.390625 0 L 71.46875 0 C 69.664062 0 68.117188 -0.289062 66.828125 -0.875 C 65.535156 -1.46875 64.46875 -2.523438 63.625 -4.046875 L 44.046875 -36.03125 C 43.253906 -37.375 42.4375 -38.242188 41.59375 -38.640625 C 40.75 -39.035156 39.484375 -39.234375 37.796875 -39.234375 L 32.90625 -39.234375 L 32.90625 0 L 9.625 0 L 9.625 -125.796875 Z M 32.90625 -125.796875 "/></g></g></g><g fill="#cc0000" fill-opacity="1"><g transform="translate(32.525474, 130.904039)"><g><path d="M 11.609375 -28.8125 C 12.867188 -29.988281 14.253906 -30.941406 15.765625 -31.671875 C 17.273438 -32.410156 19.046875 -32.78125 21.078125 -32.78125 C 22.835938 -32.78125 24.398438 -32.476562 25.765625 -31.875 C 27.128906 -31.28125 28.265625 -30.441406 29.171875 -29.359375 C 30.085938 -28.285156 30.78125 -27 31.25 -25.5 C 31.726562 -24 31.96875 -22.347656 31.96875 -20.546875 L 31.96875 0 L 24.1875 0 L 24.1875 -20.546875 C 24.1875 -22.515625 23.734375 -24.035156 22.828125 -25.109375 C 21.929688 -26.191406 20.5625 -26.734375 18.71875 -26.734375 C 17.375 -26.734375 16.113281 -26.429688 14.9375 -25.828125 C 13.769531 -25.222656 12.660156 -24.394531 11.609375 -23.34375 L 11.609375 0 L 3.84375 0 L 3.84375 -46.75 L 11.609375 -46.75 Z M 11.609375 -28.8125 "/></g></g></g><g fill="#cc0000" fill-opacity="1"><g transform="translate(71.914142, 130.904039)"><g><path d="M 20.890625 -13.78125 C 18.648438 -13.675781 16.765625 -13.476562 15.234375 -13.1875 C 13.703125 -12.90625 12.472656 -12.546875 11.546875 -12.109375 C 10.617188 -11.671875 9.957031 -11.15625 9.5625 -10.5625 C 9.164062 -9.976562 8.96875 -9.34375 8.96875 -8.65625 C 8.96875 -7.289062 9.367188 -6.3125 10.171875 -5.71875 C 10.984375 -5.132812 12.039062 -4.84375 13.34375 -4.84375 C 14.9375 -4.84375 16.3125 -5.128906 17.46875 -5.703125 C 18.632812 -6.285156 19.773438 -7.164062 20.890625 -8.34375 Z M 3.078125 -27.78125 C 6.796875 -31.175781 11.265625 -32.875 16.484375 -32.875 C 18.367188 -32.875 20.054688 -32.5625 21.546875 -31.9375 C 23.035156 -31.320312 24.296875 -30.460938 25.328125 -29.359375 C 26.359375 -28.265625 27.140625 -26.953125 27.671875 -25.421875 C 28.203125 -23.890625 28.46875 -22.210938 28.46875 -20.390625 L 28.46875 0 L 24.953125 0 C 24.210938 0 23.644531 -0.109375 23.25 -0.328125 C 22.851562 -0.546875 22.539062 -0.992188 22.3125 -1.671875 L 21.609375 -4 C 20.796875 -3.257812 20 -2.613281 19.21875 -2.0625 C 18.445312 -1.507812 17.640625 -1.039062 16.796875 -0.65625 C 15.960938 -0.28125 15.066406 0.00390625 14.109375 0.203125 C 13.148438 0.398438 12.097656 0.5 10.953125 0.5 C 9.585938 0.5 8.328125 0.316406 7.171875 -0.046875 C 6.015625 -0.410156 5.015625 -0.957031 4.171875 -1.6875 C 3.335938 -2.425781 2.691406 -3.34375 2.234375 -4.4375 C 1.773438 -5.53125 1.546875 -6.800781 1.546875 -8.25 C 1.546875 -9.0625 1.679688 -9.867188 1.953125 -10.671875 C 2.222656 -11.484375 2.664062 -12.253906 3.28125 -12.984375 C 3.90625 -13.722656 4.707031 -14.414062 5.6875 -15.0625 C 6.675781 -15.71875 7.890625 -16.285156 9.328125 -16.765625 C 10.765625 -17.253906 12.4375 -17.648438 14.34375 -17.953125 C 16.25 -18.253906 18.429688 -18.4375 20.890625 -18.5 L 20.890625 -20.390625 C 20.890625 -22.546875 20.425781 -24.140625 19.5 -25.171875 C 18.582031 -26.210938 17.253906 -26.734375 15.515625 -26.734375 C 14.253906 -26.734375 13.207031 -26.585938 12.375 -26.296875 C 11.550781 -26.003906 10.820312 -25.675781 10.1875 -25.3125 C 9.5625 -24.945312 8.988281 -24.613281 8.46875 -24.3125 C 7.957031 -24.019531 7.390625 -23.875 6.765625 -23.875 C 6.222656 -23.875 5.757812 -24.015625 5.375 -24.296875 C 5 -24.585938 4.695312 -24.921875 4.46875 -25.296875 Z M 3.078125 -27.78125 "/></g></g></g><g fill="#cc0000" fill-opacity="1"><g transform="translate(107.747868, 130.904039)"><g><path d="M 11.109375 -28.3125 C 11.753906 -28.96875 12.4375 -29.570312 13.15625 -30.125 C 13.882812 -30.675781 14.648438 -31.144531 15.453125 -31.53125 C 16.265625 -31.925781 17.128906 -32.234375 18.046875 -32.453125 C 18.972656 -32.671875 19.984375 -32.78125 21.078125 -32.78125 C 22.835938 -32.78125 24.398438 -32.476562 25.765625 -31.875 C 27.128906 -31.28125 28.265625 -30.441406 29.171875 -29.359375 C 30.085938 -28.285156 30.78125 -27 31.25 -25.5 C 31.726562 -24 31.96875 -22.347656 31.96875 -20.546875 L 31.96875 0 L 24.1875 0 L 24.1875 -20.546875 C 24.1875 -22.515625 23.734375 -24.035156 22.828125 -25.109375 C 21.929688 -26.191406 20.5625 -26.734375 18.71875 -26.734375 C 17.375 -26.734375 16.113281 -26.429688 14.9375 -25.828125 C 13.769531 -25.222656 12.660156 -24.394531 11.609375 -23.34375 L 11.609375 0 L 3.84375 0 L 3.84375 -32.28125 L 8.59375 -32.28125 C 9.59375 -32.28125 10.253906 -31.804688 10.578125 -30.859375 Z M 11.109375 -28.3125 "/></g></g></g><g fill="#cc0000" fill-opacity="1"><g transform="translate(147.136541, 130.904039)"><g><path d="M 23.53125 -25.984375 C 23.320312 -25.648438 23.101562 -25.414062 22.875 -25.28125 C 22.644531 -25.144531 22.347656 -25.078125 21.984375 -25.078125 C 21.609375 -25.078125 21.207031 -25.179688 20.78125 -25.390625 C 20.351562 -25.597656 19.851562 -25.832031 19.28125 -26.09375 C 18.71875 -26.351562 18.070312 -26.585938 17.34375 -26.796875 C 16.625 -27.015625 15.769531 -27.125 14.78125 -27.125 C 13.25 -27.125 12.046875 -26.796875 11.171875 -26.140625 C 10.304688 -25.492188 9.875 -24.644531 9.875 -23.59375 C 9.875 -22.90625 10.097656 -22.320312 10.546875 -21.84375 C 11.003906 -21.375 11.601562 -20.960938 12.34375 -20.609375 C 13.09375 -20.253906 13.9375 -19.929688 14.875 -19.640625 C 15.820312 -19.359375 16.78125 -19.050781 17.75 -18.71875 C 18.726562 -18.382812 19.6875 -18 20.625 -17.5625 C 21.570312 -17.132812 22.414062 -16.585938 23.15625 -15.921875 C 23.90625 -15.265625 24.503906 -14.472656 24.953125 -13.546875 C 25.410156 -12.628906 25.640625 -11.519531 25.640625 -10.21875 C 25.640625 -8.664062 25.359375 -7.234375 24.796875 -5.921875 C 24.242188 -4.617188 23.421875 -3.488281 22.328125 -2.53125 C 21.242188 -1.570312 19.898438 -0.828125 18.296875 -0.296875 C 16.691406 0.234375 14.835938 0.5 12.734375 0.5 C 11.628906 0.5 10.546875 0.398438 9.484375 0.203125 C 8.421875 0.00390625 7.398438 -0.269531 6.421875 -0.625 C 5.453125 -0.976562 4.550781 -1.394531 3.71875 -1.875 C 2.894531 -2.363281 2.171875 -2.890625 1.546875 -3.453125 L 3.328125 -6.421875 C 3.566406 -6.773438 3.84375 -7.046875 4.15625 -7.234375 C 4.46875 -7.421875 4.863281 -7.515625 5.34375 -7.515625 C 5.832031 -7.515625 6.289062 -7.378906 6.71875 -7.109375 C 7.144531 -6.835938 7.640625 -6.539062 8.203125 -6.21875 C 8.773438 -5.90625 9.441406 -5.613281 10.203125 -5.34375 C 10.972656 -5.070312 11.945312 -4.9375 13.125 -4.9375 C 14.039062 -4.9375 14.828125 -5.046875 15.484375 -5.265625 C 16.148438 -5.484375 16.695312 -5.769531 17.125 -6.125 C 17.5625 -6.488281 17.878906 -6.90625 18.078125 -7.375 C 18.273438 -7.84375 18.375 -8.332031 18.375 -8.84375 C 18.375 -9.59375 18.144531 -10.207031 17.6875 -10.6875 C 17.238281 -11.175781 16.640625 -11.597656 15.890625 -11.953125 C 15.148438 -12.304688 14.300781 -12.625 13.34375 -12.90625 C 12.394531 -13.195312 11.421875 -13.507812 10.421875 -13.84375 C 9.429688 -14.175781 8.457031 -14.566406 7.5 -15.015625 C 6.550781 -15.472656 5.703125 -16.046875 4.953125 -16.734375 C 4.210938 -17.429688 3.613281 -18.28125 3.15625 -19.28125 C 2.707031 -20.289062 2.484375 -21.507812 2.484375 -22.9375 C 2.484375 -24.257812 2.742188 -25.515625 3.265625 -26.703125 C 3.796875 -27.898438 4.566406 -28.941406 5.578125 -29.828125 C 6.597656 -30.722656 7.867188 -31.4375 9.390625 -31.96875 C 10.910156 -32.507812 12.664062 -32.78125 14.65625 -32.78125 C 16.882812 -32.78125 18.910156 -32.410156 20.734375 -31.671875 C 22.554688 -30.941406 24.078125 -29.976562 25.296875 -28.78125 Z M 23.53125 -25.984375 "/></g></g></g><g fill="#cc0000" fill-opacity="1"><g transform="translate(178.691733, 130.904039)"><g><path d="M 24.640625 -19.859375 C 24.640625 -20.859375 24.492188 -21.800781 24.203125 -22.6875 C 23.921875 -23.582031 23.492188 -24.363281 22.921875 -25.03125 C 22.359375 -25.707031 21.640625 -26.238281 20.765625 -26.625 C 19.898438 -27.019531 18.894531 -27.21875 17.75 -27.21875 C 15.5 -27.21875 13.726562 -26.578125 12.4375 -25.296875 C 11.15625 -24.015625 10.332031 -22.203125 9.96875 -19.859375 Z M 9.8125 -15.171875 C 9.9375 -13.503906 10.226562 -12.066406 10.6875 -10.859375 C 11.15625 -9.660156 11.765625 -8.664062 12.515625 -7.875 C 13.273438 -7.09375 14.171875 -6.503906 15.203125 -6.109375 C 16.242188 -5.722656 17.394531 -5.53125 18.65625 -5.53125 C 19.914062 -5.53125 21 -5.675781 21.90625 -5.96875 C 22.820312 -6.269531 23.617188 -6.597656 24.296875 -6.953125 C 24.984375 -7.304688 25.582031 -7.628906 26.09375 -7.921875 C 26.613281 -8.222656 27.113281 -8.375 27.59375 -8.375 C 28.238281 -8.375 28.71875 -8.128906 29.03125 -7.640625 L 31.265625 -4.8125 C 30.410156 -3.800781 29.445312 -2.957031 28.375 -2.28125 C 27.300781 -1.601562 26.179688 -1.054688 25.015625 -0.640625 C 23.859375 -0.234375 22.675781 0.0507812 21.46875 0.21875 C 20.257812 0.382812 19.09375 0.46875 17.96875 0.46875 C 15.71875 0.46875 13.628906 0.0976562 11.703125 -0.640625 C 9.773438 -1.390625 8.097656 -2.492188 6.671875 -3.953125 C 5.242188 -5.410156 4.117188 -7.210938 3.296875 -9.359375 C 2.484375 -11.503906 2.078125 -13.992188 2.078125 -16.828125 C 2.078125 -19.035156 2.429688 -21.109375 3.140625 -23.046875 C 3.859375 -24.984375 4.882812 -26.671875 6.21875 -28.109375 C 7.550781 -29.546875 9.175781 -30.679688 11.09375 -31.515625 C 13.007812 -32.359375 15.175781 -32.78125 17.59375 -32.78125 C 19.625 -32.78125 21.5 -32.453125 23.21875 -31.796875 C 24.9375 -31.148438 26.414062 -30.203125 27.65625 -28.953125 C 28.894531 -27.710938 29.863281 -26.179688 30.5625 -24.359375 C 31.269531 -22.546875 31.625 -20.476562 31.625 -18.15625 C 31.625 -16.976562 31.492188 -16.1875 31.234375 -15.78125 C 30.984375 -15.375 30.503906 -15.171875 29.796875 -15.171875 Z M 9.8125 -15.171875 "/></g></g></g></svg>