<?xml version="1.0" encoding="UTF-8" standalone="no"?><!DOCTYPE svg PUBLIC "-//W3C//DTD SVG 1.1//EN" "http://www.w3.org/Graphics/SVG/1.1/DTD/svg11.dtd"><svg width="100%" height="100%" viewBox="0 0 2084 2084" version="1.1" xmlns="http://www.w3.org/2000/svg" xmlns:xlink="http://www.w3.org/1999/xlink" xml:space="preserve" xmlns:serif="http://www.serif.com/" style="fill-rule:evenodd;clip-rule:evenodd;stroke-linejoin:round;stroke-miterlimit:2;"><g><path d="M1315.71,390.734c-4.123,-4.145 -9.549,-6.207 -14.974,-6.207c-5.426,-0 -10.829,2.062 -14.952,6.207c-8.269,8.289 -8.269,21.766 -0,30.056c8.246,8.268 21.658,8.268 29.926,-0c8.246,-8.29 8.246,-21.767 -0,-30.056Zm33.919,303.059c0.174,0.304 0.369,0.543 0.543,0.825l66.688,2.626l-9.852,20.443c47.374,4.362 90.277,-19.553 134.505,-32.292c2.691,-0.76 5.208,-1.519 7.595,-2.235l-64.496,-64.779l-7.574,-7.595l-1.476,-1.476l-0.738,-0.76l0.695,5.317l0.716,5.295c-2.648,0.326 -5.208,0 -7.53,-0.889c-1.346,-0.521 -2.626,-1.237 -3.755,-2.127c-3.081,-2.387 -5.208,-5.903 -5.664,-10.004l-1.584,-14.779l-5.49,-5.491l-83.833,-84.201c-34.288,9.05 -75.347,40.668 -75.347,40.668l-8.247,-8.268l57.921,-58.16l-19.965,-20.052c-6.836,3.039 -14.301,4.644 -22.005,4.644c-14.041,0 -27.257,-5.295 -37.413,-14.93c-1.411,2.17 -3.212,3.841 -5.23,4.97c-1.237,0.694 -2.583,1.215 -3.928,1.519c-3.668,0.824 -7.661,0.238 -11.177,-1.867c-4.448,-2.647 -8.941,-5.273 -13.454,-7.834c-1.563,-0.89 -3.125,-1.801 -4.71,-2.669c1.476,-2.496 3.429,-4.406 5.599,-5.686c1.281,-0.759 2.648,-1.302 4.015,-1.628c3.754,-0.889 7.748,-0.282 11.241,1.889c4.428,2.756 8.898,5.468 13.347,8.181c0.955,0.564 1.91,1.15 2.864,1.736c-1.497,-1.541 -2.886,-3.147 -4.188,-4.818c-1.432,-1.823 -2.734,-3.732 -3.906,-5.685c-3.907,-2.322 -7.791,-4.688 -11.676,-7.053c-1.454,-0.89 -2.908,-1.78 -4.362,-2.67c1.259,-2.105 2.865,-3.667 4.731,-4.774c1.129,-0.651 2.366,-1.15 3.624,-1.476c0.456,-0.108 0.89,-0.195 1.346,-0.26c-0.304,-1.432 -0.564,-2.886 -0.76,-4.34c-0.303,-2.431 -0.499,-4.883 -0.499,-7.357c0,-14.627 5.686,-28.364 15.972,-38.715c10.309,-10.33 24.002,-16.038 38.564,-16.038c14.561,0 28.255,5.708 38.563,16.038c10.287,10.351 15.972,24.088 15.972,38.715c0,7.747 -1.605,15.234 -4.644,22.114l19.966,20.03l57.921,-58.16l8.246,8.29c0,0 -31.489,41.233 -40.516,75.63l118.967,119.444l1.497,1.519l0.738,0.738l-0.846,-5.035l-0.868,-5.121c2.539,-0.434 5.034,-0.196 7.313,0.586c5.013,1.714 8.941,6.033 9.939,11.61l2.734,15.516l0.174,0.955l41.103,41.298c0.716,-2.431 1.475,-4.948 2.235,-7.639c3.016,-10.612 6.684,-21.137 10.438,-31.662c-0.282,-0.087 -0.586,-0.174 -0.89,-0.261c-4.969,-1.757 -8.875,-6.076 -9.852,-11.653l-2.669,-15.517l-0.912,-5.208c2.604,-0.456 5.143,-0.195 7.466,0.586c5.056,1.736 9.006,6.098 9.917,11.653l1.324,8.182c0.325,-0.933 0.673,-1.866 0.998,-2.821c0.478,-1.324 0.933,-2.648 1.411,-3.972c0.282,-0.824 0.564,-1.671 0.846,-2.495l-1.02,-6.402l-0.846,-5.252c1.953,-0.304 3.884,-0.217 5.685,0.195c7.292,-22.83 12.479,-46.05 10.244,-70.442l-20.335,9.895l-2.626,-66.927c-0.282,-0.195 -0.52,-0.412 -0.824,-0.586c0.282,0.044 0.542,0.131 0.824,0.174l-0.737,-18.641l65.191,55.859l-22.461,10.959c9.071,25.109 9.961,52.691 6.141,79.427c2.431,-0.195 4.796,0.196 6.923,1.042c5.013,2.04 8.724,6.662 9.245,12.305l1.432,15.82l0.456,5.1c-2.539,0.238 -4.948,-0.174 -7.14,-1.129c-1.28,-0.564 -2.496,-1.302 -3.581,-2.213c-2.908,-2.366 -4.991,-5.881 -5.447,-9.983l-1.866,-15.56l-0.369,-3.125c-0.369,2.409 -0.781,4.796 -1.215,7.183c-0.478,2.648 -0.999,5.295 -1.563,7.921c-0.043,0.152 -0.087,0.304 -0.108,0.456l1.302,10.655l0.607,5.1c-1.866,0.217 -3.667,0.065 -5.403,-0.369c-7.227,31.142 -15.018,61.372 -17.687,93.273c-0.282,2.864 -0.477,5.772 -0.608,8.746c-2.929,0.108 -5.837,0.325 -8.702,0.607c-37.109,3.082 -71.94,13.26 -108.637,21.333c-31.814,6.988 -65.95,8.094 -96.419,-3.017l-10.894,22.57l-55.643,-65.452l18.555,0.716c-0.043,-0.26 -0.13,-0.52 -0.152,-0.803" style="fill:#c00;fill-rule:nonzero;"/></g><path d="M1655.71,690.755c0.348,-1.649 0.695,-3.298 1.042,-4.926c2.452,0.477 4.623,1.584 6.402,3.103c1.063,0.912 1.975,1.953 2.756,3.125c2.083,3.082 3.06,7.053 2.387,11.133c-0.868,5.122 -1.692,10.265 -2.495,15.386c-0.283,1.802 -0.586,3.603 -0.868,5.404c-2.67,-0.499 -5.079,-1.606 -7.075,-3.147c-1.172,-0.911 -2.192,-1.974 -3.017,-3.168c-2.257,-3.234 -3.211,-7.248 -2.387,-11.285c1.042,-5.23 2.149,-10.416 3.255,-15.625" style="fill:#c00;fill-rule:nonzero;"/><path d="M1674,697.049c0.26,-1.693 0.542,-3.407 0.824,-5.1c2.474,0.347 4.688,1.345 6.533,2.799c1.106,0.847 2.083,1.845 2.907,2.973c2.236,2.973 3.429,6.88 2.93,10.981c-0.607,5.209 -1.172,10.417 -1.736,15.647c-0.195,1.758 -0.391,3.516 -0.564,5.295c-2.713,-0.369 -5.165,-1.345 -7.227,-2.799c-1.215,-0.847 -2.278,-1.845 -3.168,-2.995c-2.431,-3.125 -3.581,-7.075 -2.952,-11.155c0.782,-5.23 1.606,-10.438 2.453,-15.646" style="fill:#c00;fill-rule:nonzero;"/><path d="M1692.6,702.3c0.195,-1.714 0.369,-3.428 0.564,-5.143c2.496,0.239 4.753,1.107 6.684,2.452c1.15,0.803 2.17,1.758 3.038,2.843c2.387,2.865 3.776,6.706 3.494,10.829c-0.369,5.23 -0.673,10.46 -0.976,15.69c-0.109,1.78 -0.196,3.559 -0.304,5.317c-2.713,-0.217 -5.23,-1.063 -7.357,-2.409c-1.259,-0.781 -2.365,-1.757 -3.32,-2.843c-2.561,-2.994 -3.907,-6.901 -3.494,-11.002c0.521,-5.252 1.085,-10.482 1.671,-15.734" style="fill:#c00;fill-rule:nonzero;"/><path d="M1711.76,701.454c2.496,0.109 4.796,0.868 6.793,2.105c1.172,0.738 2.235,1.649 3.168,2.691c2.539,2.734 4.102,6.51 4.015,10.634c-0.087,5.23 -0.13,10.481 -0.174,15.733c-0.021,1.78 -0.021,3.538 -0.043,5.317c-2.713,-0.087 -5.274,-0.803 -7.487,-2.062c-1.281,-0.716 -2.431,-1.605 -3.429,-2.669c-2.713,-2.843 -4.253,-6.662 -4.058,-10.785c0.282,-5.274 0.564,-10.547 0.89,-15.821c0.108,-1.714 0.217,-3.429 0.325,-5.143" style="fill:#c00;fill-rule:nonzero;"/><path d="M1730.53,704.796c2.496,-0.022 4.839,0.629 6.879,1.758c1.215,0.694 2.344,1.519 3.321,2.517c2.669,2.604 4.405,6.294 4.535,10.417c0.174,5.252 0.391,10.482 0.608,15.733c0.087,1.758 0.152,3.538 0.238,5.317c-2.734,0.044 -5.316,-0.542 -7.595,-1.671c-1.302,-0.651 -2.517,-1.497 -3.559,-2.495c-2.843,-2.713 -4.579,-6.446 -4.579,-10.569c-0,-5.295 0.043,-10.569 0.087,-15.842c0.021,-1.714 0.043,-3.451 0.065,-5.165" style="fill:#c00;fill-rule:nonzero;"/><path d="M1759.85,710.938c2.778,2.473 4.71,6.076 5.057,10.177c0.434,5.231 0.911,10.461 1.389,15.669c0.173,1.779 0.325,3.537 0.499,5.317c-2.713,0.173 -5.339,-0.282 -7.639,-1.281c-1.345,-0.586 -2.604,-1.367 -3.689,-2.322c-2.995,-2.56 -4.926,-6.206 -5.122,-10.33c-0.26,-5.273 -0.499,-10.546 -0.694,-15.82c-0.065,-1.736 -0.152,-3.45 -0.196,-5.165c2.474,-0.13 4.862,0.391 6.967,1.411c1.237,0.607 2.387,1.41 3.428,2.344" style="fill:#c00;fill-rule:nonzero;"/><path d="M1775.48,709.679c1.281,0.542 2.474,1.28 3.559,2.17c2.908,2.322 5.013,5.816 5.556,9.896c0.694,5.208 1.432,10.395 2.192,15.581c0.26,1.758 0.499,3.516 0.759,5.274c-2.691,0.325 -5.338,-0 -7.704,-0.89c-1.367,-0.521 -2.647,-1.237 -3.797,-2.127c-3.125,-2.408 -5.23,-5.946 -5.621,-10.047c-0.543,-5.274 -1.042,-10.504 -1.497,-15.777c-0.152,-1.715 -0.326,-3.429 -0.478,-5.165c2.496,-0.239 4.883,0.152 7.031,1.085" style="fill:#c00;fill-rule:nonzero;"/><path d="M1794.58,709.787c1.302,0.478 2.539,1.151 3.645,1.975c3.039,2.17 5.317,5.556 6.077,9.614c0.955,5.143 1.953,10.286 2.973,15.43c0.347,1.736 0.694,3.494 1.042,5.23c-2.691,0.455 -5.339,0.282 -7.748,-0.478c-1.41,-0.456 -2.734,-1.107 -3.906,-1.953c-3.234,-2.235 -5.512,-5.664 -6.142,-9.744c-0.802,-5.23 -1.54,-10.438 -2.278,-15.668c-0.239,-1.715 -0.499,-3.407 -0.738,-5.122c2.474,-0.39 4.883,-0.108 7.075,0.716" style="fill:#c00;fill-rule:nonzero;"/><path d="M1806.55,708.55c1.02,-0.173 1.801,-0.282 2.669,-0.282c0.846,0 1.671,0.087 2.496,0.239c0.39,0.087 0.781,0.195 1.172,0.325c1.215,0.369 2.365,0.912 3.472,1.628c2.886,1.845 5.512,4.84 6.966,8.681c1.823,4.904 3.798,9.809 5.924,14.648c0.717,1.606 1.433,3.19 2.192,4.774c-3.016,1.194 -6.076,1.498 -8.897,1.129c-1.65,-0.239 -3.19,-0.695 -4.579,-1.367c-3.776,-1.845 -6.424,-5.122 -7.292,-9.18c-1.172,-5.122 -2.148,-10.265 -3.147,-15.43c-0.325,-1.714 -0.651,-3.429 -0.976,-5.165" style="fill:#c00;fill-rule:nonzero;"/><path d="M1824.67,711.046c-0.672,-1.606 -1.323,-3.212 -1.953,-4.839c1.845,-0.847 3.603,-1.129 5.404,-0.955c1.042,0.108 2.105,0.369 3.212,0.803c1.432,0.521 3.038,1.389 4.492,2.365c1.519,0.998 3.06,2.279 4.427,3.82c3.472,3.928 7.162,7.638 11.133,11.132c1.324,1.151 2.669,2.301 4.058,3.408c-1.107,1.041 -2.279,2.061 -3.516,2.799c-1.237,0.716 -2.495,1.346 -3.754,1.823c-0.651,0.195 -1.302,0.369 -1.953,0.521c-1.845,0.412 -3.646,0.564 -5.295,0.304c-1.129,-0.131 -2.192,-0.391 -3.19,-0.738c-0.977,-0.391 -1.888,-0.89 -2.735,-1.476c-1.649,-1.194 -2.951,-2.734 -3.863,-4.579c-2.322,-4.753 -4.47,-9.549 -6.467,-14.388" style="fill:#c00;fill-rule:nonzero;"/><g><clipPath id="_clip1"><rect x="1833.33" y="694.444" width="37.999" height="27.778"/></clipPath><g clip-path="url(#_clip1)"><path d="M1838.02,704.536c-1.259,-1.216 -2.474,-2.453 -3.689,-3.733c0.781,-1.128 1.714,-1.628 3.016,-1.91c0.738,-0.173 1.606,-0.26 2.648,-0.325c1.302,-0.152 2.929,-0.217 4.774,-0.196c1.714,-0.065 3.689,0.022 5.707,0.391c3.429,0.629 6.901,1.085 10.439,1.389c1.736,0.152 3.494,0.239 5.23,0.304c1.758,0.043 3.515,0.065 5.273,0.043c-0.477,4.08 -2.17,7.921 -4.535,10.786c-1.346,1.627 -2.908,2.951 -4.579,3.841c-0.565,0.325 -1.107,0.608 -1.671,0.846c-0.565,0.196 -1.15,0.369 -1.715,0.521c-1.128,0.26 -2.235,0.369 -3.277,0.326c-2.105,-0.066 -4.079,-0.912 -5.729,-2.105c-4.253,-3.147 -8.181,-6.533 -11.892,-10.178" style="fill:#c00;fill-rule:nonzero;"/></g></g><g><path d="M1865.28,692.535c-1.736,1.28 -3.668,1.953 -5.708,2.061c-5.208,0.304 -10.503,0.217 -15.711,-0.282c-1.737,-0.152 -3.451,-0.347 -5.144,-0.586c-0.108,-0.477 0.065,-0.889 0.109,-1.323c0.065,-0.413 0.239,-0.803 0.542,-1.237c0.109,-0.217 0.239,-0.434 0.413,-0.673c0.455,-0.651 1.15,-1.324 1.801,-2.127c0.477,-0.521 1.063,-1.063 1.693,-1.649c0.542,-0.564 1.171,-1.15 1.866,-1.736c1.389,-1.172 3.038,-2.344 4.839,-3.256c4.644,-2.365 9.18,-5.013 13.585,-7.921c1.476,-0.976 2.93,-1.974 4.362,-2.994c1.888,3.146 2.691,6.901 2.583,10.395c-0.065,2.083 -0.456,4.079 -1.172,5.816c-0.977,2.365 -2.279,4.231 -4.058,5.512" style="fill:#c00;fill-rule:nonzero;"/></g><path d="M1854.95,673.047c-4.254,3.168 -8.55,6.098 -13.043,8.789c-1.475,0.89 -2.973,1.736 -4.492,2.582c-0.955,-1.237 -1.454,-2.777 -1.606,-4.557c-0.087,-1.063 -0.043,-2.213 0.109,-3.429c0.412,-3.255 1.736,-7.009 4.34,-10.156c3.364,-4.015 6.641,-8.16 9.787,-12.391c1.042,-1.411 2.062,-2.822 3.082,-4.254c2.474,2.018 4.34,4.644 5.469,7.422c0.629,1.628 1.041,3.32 1.128,4.991c0.326,4.536 -1.432,8.551 -4.774,11.003" style="fill:#c00;fill-rule:nonzero;"/><path d="M1841.88,656.359c-3.082,4.448 -6.294,8.767 -9.592,12.999c-0.999,1.258 -1.953,2.539 -2.973,3.797c-1.65,-1.193 -2.908,-2.756 -3.798,-4.622c-0.499,-1.107 -0.89,-2.3 -1.129,-3.581c-0.347,-1.692 -0.39,-3.559 -0.152,-5.425c0.217,-1.866 0.76,-3.798 1.671,-5.642c2.344,-4.71 4.579,-9.462 6.771,-14.215c0.738,-1.584 1.476,-3.19 2.192,-4.774c0.521,0.217 0.998,0.477 1.476,0.759c0.477,0.304 0.976,0.651 1.432,1.02c0.912,0.717 1.78,1.476 2.517,2.344c0.391,0.456 0.738,0.912 1.064,1.389c0.955,1.345 1.693,2.799 2.148,4.297c0.651,1.996 0.825,4.101 0.565,6.098c-0.283,1.975 -0.999,3.841 -2.192,5.556" style="fill:#c00;fill-rule:nonzero;"/><path d="M1818.75,658.312c-0.716,1.54 -1.432,3.081 -2.17,4.622c-2.235,-0.977 -4.058,-2.496 -5.404,-4.362c-0.803,-1.107 -1.454,-2.322 -1.931,-3.624c-1.346,-3.407 -1.498,-7.444 -0,-11.306c1.888,-4.862 3.732,-9.744 5.555,-14.649c0.608,-1.693 1.237,-3.364 1.845,-5.035c2.062,0.825 3.863,1.997 5.36,3.407c0.391,0.369 0.76,0.738 1.107,1.151c0.326,0.369 0.629,0.737 0.911,1.128c0.565,0.868 1.042,1.758 1.433,2.691c1.562,3.689 1.649,7.834 -0.065,11.589c-2.171,4.817 -4.384,9.613 -6.641,14.388" style="fill:#c00;fill-rule:nonzero;"/><path d="M1802.45,648.568c-0.607,1.606 -1.215,3.212 -1.823,4.817c-2.257,-0.911 -4.188,-2.257 -5.729,-3.971c-0.89,-1.02 -1.649,-2.148 -2.235,-3.407c-1.606,-3.342 -2.018,-7.422 -0.825,-11.393c1.519,-4.992 2.973,-10.005 4.406,-15.018c0.477,-1.714 0.976,-3.407 1.475,-5.121c1.042,0.304 2.062,0.694 2.995,1.193c0.912,0.521 1.78,1.129 2.561,1.802c0.412,0.347 0.803,0.694 1.172,1.085c1.063,1.085 1.953,2.3 2.647,3.58c1.867,3.494 2.279,7.574 0.868,11.502c-1.801,5.013 -3.645,9.983 -5.512,14.931" style="fill:#c00;fill-rule:nonzero;"/><path d="M1785.39,640.104c-0.477,1.628 -0.955,3.277 -1.432,4.926c-2.366,-0.629 -4.406,-1.888 -6.033,-3.515c-0.977,-0.977 -1.802,-2.084 -2.496,-3.299c-1.866,-3.168 -2.604,-7.161 -1.693,-11.198c1.15,-5.1 2.257,-10.199 3.342,-15.321c0.369,-1.758 0.76,-3.494 1.107,-5.252c2.691,0.651 5.078,1.888 7.01,3.559c1.128,0.977 2.105,2.105 2.864,3.364c2.105,3.407 2.778,7.509 1.693,11.48c-1.411,5.1 -2.865,10.178 -4.362,15.256" style="fill:#c00;fill-rule:nonzero;"/><path d="M1763.93,637.001c-0.889,-0.347 -1.692,-0.803 -2.474,-1.324c-0.39,-0.26 -0.759,-0.564 -1.128,-0.868c-1.042,-0.868 -1.953,-1.91 -2.735,-3.06c-2.039,-3.125 -3.038,-7.118 -2.408,-11.154c0.803,-5.144 1.584,-10.33 2.322,-15.495c0.26,-1.758 0.521,-3.516 0.759,-5.274c2.735,0.369 5.165,1.476 7.183,3.06c1.194,0.933 2.214,1.997 3.082,3.19c2.322,3.212 3.299,7.184 2.474,11.22c-1.042,5.208 -2.148,10.395 -3.277,15.582c-0.369,1.671 -0.716,3.363 -1.085,5.034c-0.955,-0.217 -1.866,-0.542 -2.713,-0.911" style="fill:#c00;fill-rule:nonzero;"/><path d="M1739.32,626.346c-2.279,-2.93 -3.516,-6.815 -3.125,-10.938c0.521,-5.208 0.976,-10.438 1.432,-15.647c0.152,-1.779 0.304,-3.559 0.456,-5.338c2.713,0.304 5.208,1.258 7.313,2.669c1.237,0.825 2.322,1.801 3.256,2.93c2.495,3.081 3.71,7.053 3.146,11.154c-0.716,5.23 -1.475,10.46 -2.257,15.69c-0.26,1.715 -0.499,3.407 -0.759,5.1c-2.453,-0.304 -4.623,-1.302 -6.467,-2.691c-1.129,-0.846 -2.127,-1.844 -2.995,-2.929" style="fill:#c00;fill-rule:nonzero;"/><path d="M1730.97,621.94c-0.174,1.715 -0.304,3.429 -0.478,5.143c-2.452,-0.173 -4.73,-0.998 -6.684,-2.278c-4.296,-2.821 -7.053,-7.921 -6.857,-13.52c0.239,-5.23 0.434,-10.46 0.586,-15.712c0.065,-1.758 0.13,-3.537 0.195,-5.317c2.148,0.109 4.188,0.608 6.033,1.432c0.456,0.239 0.911,0.5 1.367,0.76c1.259,0.803 2.409,1.736 3.386,2.821c2.669,2.908 4.101,6.771 3.776,10.873c-0.413,5.251 -0.868,10.525 -1.324,15.798" style="fill:#c00;fill-rule:nonzero;"/><path d="M1711.85,623.264c-1.975,-0.065 -3.863,-0.521 -5.556,-1.346c-0.412,-0.195 -0.824,-0.412 -1.215,-0.629c-1.237,-0.694 -2.344,-1.562 -3.32,-2.582c-2.604,-2.713 -4.254,-6.446 -4.254,-10.591c-0.021,-5.186 -0.108,-10.395 -0.173,-15.625c-0.022,-1.801 -0.022,-3.624 -0.065,-5.425c2.712,0.022 5.251,0.716 7.465,1.888c1.302,0.694 2.496,1.584 3.537,2.582c2.778,2.713 4.406,6.619 4.297,10.721c-0.152,5.273 -0.325,10.569 -0.521,15.842c-0.065,1.714 -0.13,3.451 -0.195,5.165" style="fill:#c00;fill-rule:nonzero;"/><path d="M1682.62,616.233c-2.712,-2.648 -4.535,-6.229 -4.731,-10.374c-0.238,-5.186 -0.521,-10.395 -0.803,-15.603c-0.108,-1.801 -0.173,-3.602 -0.282,-5.404c2.691,-0.13 5.274,0.434 7.531,1.541c1.323,0.63 2.539,1.454 3.58,2.453c2.887,2.647 4.688,6.336 4.775,10.481c0.086,5.295 0.152,10.612 0.217,15.907c-0,1.693 0.043,3.386 0.065,5.079c-2.518,0.065 -4.905,-0.521 -6.988,-1.628c-1.215,-0.651 -2.366,-1.497 -3.364,-2.452" style="fill:#c00;fill-rule:nonzero;"/><path d="M1668.14,617.405c-0.455,-0.174 -0.911,-0.348 -1.345,-0.543c-1.259,-0.608 -2.431,-1.367 -3.494,-2.3c-2.821,-2.496 -4.774,-6.098 -5.122,-10.222c-0.434,-5.208 -0.889,-10.395 -1.367,-15.581c-0.152,-1.78 -0.304,-3.581 -0.477,-5.361c2.691,-0.217 5.252,0.261 7.53,1.259c4.97,2.192 8.551,6.901 8.854,12.587c0.304,5.317 0.586,10.612 0.847,15.929c0.087,1.692 0.195,3.385 0.282,5.078c-1.997,0.108 -3.928,-0.217 -5.708,-0.846" style="fill:#c00;fill-rule:nonzero;"/><path d="M1576.37,616.732c-2.539,0.434 -5.035,0.217 -7.313,-0.564c-5.035,-1.693 -9.006,-5.99 -9.983,-11.567l-2.778,-15.517l-0.911,-5.186c2.582,-0.456 5.121,-0.239 7.444,0.542c5.013,1.715 8.984,6.011 9.96,11.589l2.691,15.56l0.89,5.143" style="fill:#c00;fill-rule:nonzero;"/><path d="M1556.55,617.405c-2.561,0.455 -5.1,0.238 -7.4,-0.543c-5.035,-1.693 -9.006,-5.99 -9.983,-11.567l-2.756,-15.56l-0.912,-5.143c2.561,-0.456 5.057,-0.217 7.357,0.543c5.035,1.692 9.028,5.989 10.005,11.566l2.777,15.539l0.912,5.165" style="fill:#c00;fill-rule:nonzero;"/><path d="M1448.35,587.717c2.886,2.452 4.883,6.011 5.317,10.135l1.649,15.559l0.564,5.339c-2.647,0.304 -5.208,-0.152 -7.509,-1.107c-1.367,-0.586 -2.625,-1.345 -3.732,-2.235c-3.017,-2.452 -5.035,-6.033 -5.36,-10.178c-0.435,-5.295 -0.825,-10.59 -1.194,-15.885c-0.13,-1.693 -0.26,-3.407 -0.391,-5.1c2.518,-0.152 4.927,0.304 7.097,1.258c1.28,0.565 2.474,1.324 3.559,2.214" style="fill:#c00;fill-rule:nonzero;"/><path d="M1433.92,596.723c0.347,5.208 0.76,10.395 1.15,15.603c0.131,1.802 0.239,3.581 0.391,5.382c-2.691,0.196 -5.252,-0.303 -7.53,-1.367c-4.927,-2.278 -8.442,-7.096 -8.659,-12.739c-0.217,-5.316 -0.391,-10.612 -0.564,-15.928c-0.044,-1.693 -0.131,-3.364 -0.174,-5.057c2.517,-0.13 4.883,0.413 7.01,1.476c1.237,0.629 2.387,1.432 3.428,2.387c2.778,2.539 4.666,6.12 4.948,10.243" style="fill:#c00;fill-rule:nonzero;"/><path d="M1405.16,581.315c0.434,0.174 0.868,0.391 1.28,0.608c1.216,0.673 2.344,1.497 3.342,2.495c2.648,2.648 4.384,6.359 4.493,10.504c0.13,5.23 0.303,10.482 0.477,15.733c0.065,1.758 0.13,3.538 0.195,5.296c-2.712,0.043 -5.273,-0.586 -7.508,-1.715c-4.862,-2.496 -8.16,-7.422 -8.095,-13.129c0.022,-5.317 0.087,-10.656 0.174,-15.972c0.021,-1.671 0.021,-3.364 0.043,-5.057c1.997,0.022 3.885,0.456 5.599,1.237" style="fill:#c00;fill-rule:nonzero;"/><path d="M1380.82,576.714c2.474,0.131 4.774,0.89 6.771,2.127c1.172,0.738 2.235,1.649 3.168,2.691c2.496,2.843 4.08,6.511 3.993,10.656c-0.108,5.186 -0.152,10.394 -0.217,15.581c-0.021,1.823 -0.065,3.624 -0.087,5.447c-2.148,-0.043 -4.188,-0.499 -6.054,-1.302c-0.478,-0.217 -0.955,-0.477 -1.433,-0.738c-1.258,-0.738 -2.408,-1.671 -3.407,-2.712c-2.712,-2.843 -4.253,-6.663 -4.014,-10.786c0.282,-5.273 0.586,-10.525 0.933,-15.799c0.108,-1.714 0.217,-3.428 0.347,-5.165" style="fill:#c00;fill-rule:nonzero;"/><path d="M1362.35,572.309c2.452,0.26 4.666,1.172 6.554,2.517c1.15,0.803 2.17,1.78 3.082,2.843c2.343,2.887 3.71,6.728 3.407,10.851c-0.391,5.23 -0.717,10.46 -1.042,15.712c-0.109,1.779 -0.217,3.537 -0.326,5.317c-2.712,-0.239 -5.208,-1.107 -7.335,-2.474c-1.258,-0.803 -2.387,-1.758 -3.342,-2.843c-2.582,-2.973 -3.884,-6.966 -3.428,-11.046c0.564,-5.274 1.171,-10.504 1.801,-15.755c0.217,-1.715 0.412,-3.429 0.629,-5.122" style="fill:#c00;fill-rule:nonzero;"/><path d="M1344.23,566.905c2.431,0.456 4.623,1.454 6.446,2.887c1.063,0.846 2.018,1.844 2.821,2.994c1.085,1.541 1.888,3.299 2.387,5.165c0.499,1.845 0.651,3.842 0.391,5.881c-0.673,5.187 -1.302,10.374 -1.888,15.582c-0.217,1.758 -0.413,3.537 -0.608,5.295c-2.17,-0.282 -4.167,-0.911 -5.946,-1.953c-0.434,-0.282 -0.89,-0.564 -1.302,-0.868c-1.194,-0.911 -2.279,-1.953 -3.169,-3.103c-2.387,-3.147 -3.494,-7.118 -2.821,-11.176c0.89,-5.187 1.801,-10.395 2.756,-15.604c0.304,-1.714 0.63,-3.407 0.933,-5.1" style="fill:#c00;fill-rule:nonzero;"/><path d="M1325.35,565.365c0.413,-1.671 0.825,-3.342 1.259,-4.992c1.888,0.434 3.602,1.281 5.078,2.409c0.369,0.261 0.716,0.564 1.063,0.89c0.348,0.304 0.673,0.651 0.977,0.998c0.608,0.673 1.194,1.389 1.693,2.192c1.974,3.125 2.843,7.096 2.083,11.155c-0.998,5.143 -1.931,10.286 -2.843,15.451c-0.325,1.758 -0.629,3.516 -0.933,5.273c-2.691,-0.564 -5.1,-1.736 -7.075,-3.342c-1.172,-0.933 -2.192,-2.018 -2.994,-3.211c-2.214,-3.342 -3.039,-7.401 -2.084,-11.437c1.215,-5.143 2.474,-10.287 3.776,-15.386" style="fill:#c00;fill-rule:nonzero;"/><path d="M1307.92,557.574c0.543,-1.628 1.063,-3.255 1.606,-4.883c0.933,0.304 1.779,0.694 2.582,1.194c0.825,0.434 1.606,0.954 2.301,1.54c0.369,0.304 0.716,0.63 1.041,0.977c0.934,0.976 1.758,2.105 2.388,3.32c1.714,3.299 2.3,7.379 1.28,11.328c-1.324,5.057 -2.583,10.113 -3.841,15.191c-0.413,1.736 -0.847,3.451 -1.259,5.187c-2.691,-0.629 -5.013,-2.018 -6.879,-3.776c-1.085,-1.063 -2.018,-2.235 -2.756,-3.516c-1.997,-3.429 -2.583,-7.465 -1.346,-11.415c1.584,-5.078 3.212,-10.112 4.883,-15.147" style="fill:#c00;fill-rule:nonzero;"/><path d="M1291.19,548.503c0.673,-1.563 1.324,-3.147 1.975,-4.71c2.279,0.868 4.145,2.344 5.577,4.145c0.868,1.064 1.563,2.257 2.105,3.516c1.519,3.342 1.823,7.4 0.499,11.306c-1.692,4.948 -3.32,9.918 -4.926,14.888c-0.564,1.714 -1.128,3.407 -1.649,5.099c-2.626,-0.933 -4.905,-2.43 -6.641,-4.296c-1.041,-1.107 -1.866,-2.323 -2.517,-3.646c-1.714,-3.646 -1.953,-7.769 -0.412,-11.611c1.953,-4.926 3.949,-9.809 5.989,-14.691" style="fill:#c00;fill-rule:nonzero;"/><path d="M1275.3,538.173c0.781,-1.498 1.562,-3.017 2.365,-4.536c2.105,1.15 3.863,2.713 5.165,4.579c0.781,1.107 1.411,2.322 1.845,3.624c1.193,3.516 1.15,7.617 -0.478,11.415c-2.083,4.796 -4.079,9.592 -6.054,14.432c-0.673,1.649 -1.346,3.277 -2.019,4.926c-1.019,-0.412 -1.996,-0.912 -2.864,-1.519c-0.868,-0.63 -1.649,-1.346 -2.366,-2.105c-0.368,-0.391 -0.716,-0.782 -1.041,-1.216c-0.933,-1.193 -1.693,-2.495 -2.235,-3.862c-1.476,-3.69 -1.411,-7.791 0.455,-11.546c2.366,-4.752 4.775,-9.483 7.227,-14.192" style="fill:#c00;fill-rule:nonzero;"/><path d="M1260.33,526.584c0.911,-1.432 1.823,-2.864 2.734,-4.297c2.084,1.237 3.689,2.952 4.796,4.97c0.673,1.194 1.15,2.474 1.454,3.819c0.933,3.538 0.586,7.552 -1.345,11.198c-2.453,4.601 -4.861,9.245 -7.227,13.911c-0.824,1.584 -1.649,3.168 -2.43,4.774c-1.953,-1.063 -3.624,-2.452 -4.97,-4.036c-0.326,-0.413 -0.651,-0.847 -0.955,-1.281c-0.282,-0.412 -0.542,-0.824 -0.781,-1.237c-0.456,-0.911 -0.825,-1.866 -1.107,-2.842c-1.107,-3.863 -0.673,-7.987 1.476,-11.502c2.734,-4.536 5.534,-9.006 8.355,-13.477" style="fill:#c00;fill-rule:nonzero;"/><path d="M1236.89,526.454c3.19,-4.319 6.446,-8.529 9.766,-12.717c1.02,-1.28 2.018,-2.604 3.06,-3.863c1.758,1.346 3.212,3.147 4.188,5.187c0.564,1.215 0.977,2.517 1.172,3.884c0.564,3.624 -0.173,7.661 -2.409,11.133c-2.864,4.384 -5.664,8.789 -8.398,13.216c-0.955,1.498 -1.91,3.017 -2.843,4.536c-1.931,-1.15 -3.364,-2.8 -4.536,-4.514c-0.303,-0.456 -0.586,-0.911 -0.824,-1.367c-0.738,-1.346 -1.259,-2.778 -1.563,-4.232c-0.412,-1.931 -0.434,-3.928 -0.065,-5.816c0.412,-1.953 1.215,-3.798 2.452,-5.447" style="fill:#c00;fill-rule:nonzero;"/><path d="M1223.83,510.026c4.102,-3.277 8.355,-6.358 12.739,-9.201c1.454,-0.933 2.93,-1.867 4.405,-2.756c0.998,1.258 1.584,2.842 1.823,4.687c0.13,1.085 0.152,2.257 0.044,3.516c-0.304,3.342 -1.541,7.139 -4.189,10.286c-3.32,3.972 -6.532,8.051 -9.7,12.153c-1.129,1.454 -2.236,2.886 -3.342,4.34c-2.301,-1.866 -4.08,-4.383 -5.165,-7.074c-0.651,-1.606 -1.042,-3.256 -1.172,-4.905c-0.347,-4.449 1.302,-8.507 4.557,-11.046" style="fill:#c00;fill-rule:nonzero;"/><path d="M1210.42,493.945c0.629,-0.911 1.345,-1.736 2.105,-2.409c1.627,-1.367 3.494,-2.191 5.512,-2.539c5.143,-0.846 10.395,-1.41 15.603,-1.692c1.736,-0.109 3.472,-0.174 5.187,-0.196c0.26,1.563 -0,2.93 -0.695,4.319c-0.39,0.825 -0.955,1.649 -1.627,2.539c-0.912,1.194 -1.997,2.452 -3.342,3.711c-1.302,1.259 -2.865,2.496 -4.666,3.494c-4.536,2.561 -9.006,5.382 -13.303,8.442c-1.432,0.998 -2.843,2.061 -4.253,3.103c-1.91,-3.06 -2.865,-6.662 -2.908,-10.069c-0.022,-1.997 0.26,-3.907 0.868,-5.599c0.368,-1.129 0.889,-2.171 1.519,-3.104" style="fill:#c00;fill-rule:nonzero;"/><g><path d="M1207.77,475.087c0.89,-1.606 1.997,-2.995 3.212,-4.08c1.628,-1.541 3.559,-2.496 5.49,-3.038c1.997,-0.478 4.015,-0.456 6.012,0.043c5.056,1.259 10.112,2.713 15.104,4.319c1.649,0.521 3.298,1.085 4.926,1.649c-0.499,1.931 -1.454,3.494 -2.799,4.796c-0.782,0.76 -1.693,1.432 -2.735,2.04c-1.367,0.803 -2.995,1.476 -4.752,1.975c-1.78,0.499 -3.733,0.824 -5.773,0.803c-5.187,-0 -10.482,0.217 -15.734,0.716c-1.736,0.174 -3.493,0.369 -5.23,0.608c-0.13,-3.668 0.782,-7.075 2.279,-9.831" style="fill:#c00;fill-rule:nonzero;"/></g><path d="M1232.96,449.913c4.666,2.539 9.289,5.165 13.868,7.834c1.454,0.847 2.908,1.671 4.34,2.539c-1.15,2.062 -2.604,3.56 -4.362,4.623c-1.042,0.651 -2.192,1.15 -3.429,1.519c-1.649,0.477 -3.45,0.716 -5.317,0.694c-1.888,-0.043 -3.841,-0.347 -5.772,-1.063c-4.905,-1.758 -9.918,-3.429 -14.953,-4.904c-1.671,-0.5 -3.363,-0.977 -5.056,-1.433c1.063,-3.103 2.843,-5.707 5.013,-7.639c1.237,-1.085 2.582,-1.974 3.971,-2.582c1.932,-0.89 3.993,-1.259 5.968,-1.194c1.975,0.087 3.928,0.63 5.729,1.606" style="fill:#c00;fill-rule:nonzero;"/><g><g><g><path d="M338.954,1537.72c-21.875,0 -41.276,-3.19 -58.16,-9.548c-16.84,-6.424 -31.055,-15.56 -42.622,-27.431c-11.588,-11.849 -20.355,-26.237 -26.302,-43.142c-5.902,-16.884 -8.854,-35.959 -8.854,-57.205l0,-260.59l-45.486,-0c-6.901,-0 -12.76,-2.171 -17.621,-6.511c-4.818,-4.383 -7.205,-10.981 -7.205,-19.791l-0,-50.608l77.343,-14.063l26.216,-125.173c3.472,-14.063 13.021,-21.094 28.646,-21.094l67.447,0l0,147.222l124.74,0l0,90.018l-124.74,-0l0,252.17c0,13.433 3.212,24.045 9.636,31.857c6.423,7.813 15.56,11.719 27.43,11.719c6.25,0 11.546,-0.694 15.886,-2.083c4.384,-1.389 8.16,-2.952 11.285,-4.688c3.125,-1.736 6.011,-3.298 8.68,-4.687c2.648,-1.389 5.404,-2.084 8.247,-2.084c3.689,0 6.792,0.869 9.288,2.605c2.539,1.692 5.056,4.557 7.552,8.593l38.889,61.893c-17.839,14.062 -37.999,24.696 -60.504,31.857c-22.461,7.162 -45.724,10.764 -69.791,10.764Z" style="fill:#c00;fill-rule:nonzero;"/></g></g></g><g><g><g><path d="M950.238,1047.01l0,483.247l-79.687,-0c-16.624,-0 -27.257,-7.487 -31.945,-22.483l-8.42,-33.767c-9.679,9.375 -19.683,17.969 -30.035,25.781c-10.308,7.813 -21.332,14.54 -33.072,20.139c-11.698,5.621 -24.349,9.983 -37.934,13.108c-13.542,3.125 -28.299,4.687 -44.271,4.687c-26.216,0 -49.566,-4.514 -70.052,-13.541c-20.487,-9.072 -37.631,-21.723 -51.389,-37.934c-13.716,-16.255 -24.176,-35.634 -31.337,-58.16c-7.183,-22.504 -10.764,-47.179 -10.764,-74.045l0,-307.032l129.34,0l0,307.032c0,26.866 6.163,47.721 18.49,62.587c12.37,14.822 30.751,22.222 55.121,22.222c18.099,-0 35.113,-3.95 51.042,-11.893c15.972,-7.986 31.12,-18.858 45.486,-32.639l0,-347.309l129.427,0Zm-239.583,-123.35c-0,9.375 -1.888,18.142 -5.642,26.302c-3.711,8.116 -8.768,15.234 -15.191,21.354c-6.424,6.076 -13.954,10.851 -22.57,14.323c-8.572,3.429 -17.686,5.121 -27.344,5.121c-9.092,0 -17.773,-1.692 -26.041,-5.121c-8.29,-3.472 -15.538,-8.247 -21.788,-14.323c-6.25,-6.12 -11.263,-13.238 -15.018,-21.354c-3.711,-8.16 -5.555,-16.927 -5.555,-26.302c-0,-9.375 1.844,-18.251 5.555,-26.65c3.755,-8.441 8.768,-15.885 15.018,-22.309c6.25,-6.423 13.498,-11.414 21.788,-15.017c8.268,-3.581 16.949,-5.382 26.041,-5.382c9.658,0 18.772,1.801 27.344,5.382c8.616,3.603 16.146,8.594 22.57,15.017c6.423,6.424 11.48,13.868 15.191,22.309c3.754,8.399 5.642,17.275 5.642,26.65Zm194.531,-0c0,9.375 -1.888,18.142 -5.642,26.302c-3.711,8.116 -8.681,15.234 -14.931,21.354c-6.25,6.076 -13.693,10.851 -22.309,14.323c-8.572,3.429 -17.708,5.121 -27.43,5.121c-9.375,0 -18.295,-1.692 -26.736,-5.121c-8.399,-3.472 -15.712,-8.247 -21.962,-14.323c-6.25,-6.12 -11.176,-13.238 -14.757,-21.354c-3.603,-8.16 -5.382,-16.927 -5.382,-26.302c-0,-9.375 1.779,-18.251 5.382,-26.65c3.581,-8.441 8.507,-15.885 14.757,-22.309c6.25,-6.423 13.563,-11.414 21.962,-15.017c8.441,-3.581 17.361,-5.382 26.736,-5.382c9.722,0 18.858,1.801 27.43,5.382c8.616,3.603 16.059,8.594 22.309,15.017c6.25,6.424 11.22,13.868 14.931,22.309c3.754,8.399 5.642,17.275 5.642,26.65Z" style="fill:#c00;fill-rule:nonzero;"/></g></g></g><g><g><g><path d="M1178.47,1126.69c15.321,-27.539 32.986,-49.262 52.952,-65.191c20.008,-15.907 43.446,-23.872 70.312,-23.872c21.875,0 39.692,5.165 53.472,15.452l-8.42,95.573c-1.562,6.25 -3.993,10.568 -7.292,12.934c-3.298,2.322 -7.769,3.472 -13.368,3.472c-4.991,0 -12.152,-0.694 -21.527,-2.083c-9.375,-1.389 -18.143,-2.084 -26.302,-2.084c-11.871,0 -22.396,1.736 -31.598,5.209c-9.201,3.429 -17.426,8.246 -24.652,14.496c-7.184,6.25 -13.672,13.933 -19.445,23.004c-5.794,9.027 -11.176,19.336 -16.146,30.902l0,295.747l-129.34,-0l0,-483.247l76.389,0c13.129,0 22.179,2.344 27.17,7.032c4.97,4.687 8.55,12.804 10.764,24.305l7.031,48.351Z" style="fill:#c00;fill-rule:nonzero;"/></g></g></g><g><g><g><path d="M1539.89,831.382l-0,396.528l21.527,0c8.16,0 14.584,-1.15 19.271,-3.472c4.688,-2.365 9.375,-6.684 14.063,-12.934l106.857,-142.535c5.317,-7.161 11.328,-12.608 18.056,-16.319c6.706,-3.755 15.213,-5.643 25.521,-5.643l118.142,0l-138.715,176.216c-10.938,14.713 -23.611,26.28 -38.021,34.722c7.161,4.991 13.411,10.764 18.75,17.361c5.317,6.554 10.46,13.867 15.451,21.962l149.566,232.986l-116.232,-0c-10.026,-0 -18.62,-1.606 -25.782,-4.861c-7.183,-3.299 -13.107,-9.158 -17.795,-17.622l-108.767,-177.691c-4.405,-7.465 -8.941,-12.283 -13.628,-14.496c-4.688,-2.192 -11.719,-3.299 -21.094,-3.299l-27.17,0l-0,217.969l-129.341,-0l0,-698.872l129.341,0Z" style="fill:#c00;fill-rule:nonzero;"/></g></g></g><g><g><g><path d="M245.194,567.175c6.987,-6.532 14.691,-11.827 23.09,-15.885c8.377,-4.102 18.229,-6.163 29.514,-6.163c9.765,-0 18.446,1.692 26.041,5.034c7.574,3.299 13.889,7.965 18.924,13.976c5.078,5.968 8.941,13.108 11.545,21.441c2.648,8.333 3.993,17.513 3.993,27.517l0,114.15l-43.229,-0l0,-114.15c0,-10.937 -2.517,-19.379 -7.552,-25.347c-4.991,-6.011 -12.587,-9.028 -22.83,-9.028c-7.465,0 -14.475,1.693 -21.007,5.035c-6.489,3.364 -12.652,7.965 -18.489,13.802l-0,129.688l-43.143,-0l0,-259.723l43.143,0l-0,99.653Z" style="fill:#c00;fill-rule:nonzero;"/></g></g></g><g><g><g><path d="M515.582,650.682c-12.457,0.586 -22.917,1.693 -31.424,3.299c-8.507,1.562 -15.342,3.559 -20.486,5.989c-5.165,2.431 -8.832,5.296 -11.024,8.594c-2.214,3.255 -3.299,6.771 -3.299,10.59c0,7.596 2.214,13.021 6.684,16.32c4.514,3.255 10.374,4.861 17.622,4.861c8.854,-0 16.493,-1.584 22.917,-4.774c6.467,-3.234 12.803,-8.117 19.01,-14.67l0,-30.209Zm-98.958,-77.778c20.659,-18.858 45.486,-28.298 74.479,-28.298c10.46,-0 19.835,1.736 28.125,5.208c8.268,3.429 15.278,8.203 21.007,14.323c5.729,6.076 10.069,13.368 13.021,21.875c2.951,8.507 4.427,17.839 4.427,27.951l-0,113.282l-19.532,-0c-4.123,-0 -7.269,-0.608 -9.461,-1.823c-2.214,-1.216 -3.95,-3.689 -5.209,-7.466l-3.906,-12.934c-4.514,4.124 -8.941,7.704 -13.281,10.764c-4.297,3.082 -8.768,5.686 -13.455,7.813c-4.644,2.083 -9.614,3.667 -14.931,4.774c-5.338,1.085 -11.176,1.649 -17.534,1.649c-7.596,0 -14.584,-1.02 -21.007,-3.038c-6.424,-2.018 -11.979,-5.056 -16.667,-9.114c-4.644,-4.102 -8.225,-9.202 -10.764,-15.278c-2.561,-6.076 -3.819,-13.129 -3.819,-21.181c-0,-4.514 0.738,-8.984 2.257,-13.455c1.497,-4.513 3.949,-8.789 7.378,-12.847c3.472,-4.101 7.921,-7.942 13.368,-11.545c5.491,-3.646 12.24,-6.792 20.226,-9.462c7.986,-2.712 17.274,-4.904 27.865,-6.597c10.59,-1.671 22.699,-2.691 36.371,-3.038l0,-10.504c0,-11.979 -2.582,-20.833 -7.726,-26.562c-5.099,-5.773 -12.478,-8.681 -22.135,-8.681c-7.01,0 -12.826,0.825 -17.448,2.431c-4.579,1.628 -8.637,3.45 -12.153,5.469c-3.472,2.04 -6.662,3.884 -9.548,5.555c-2.843,1.628 -5.99,2.431 -9.462,2.431c-3.017,-0 -5.599,-0.781 -7.726,-2.344c-2.083,-1.606 -3.776,-3.472 -5.035,-5.556l-7.725,-13.802Z" style="fill:#c00;fill-rule:nonzero;"/></g></g></g><g><g><g><path d="M660.318,569.953c3.581,-3.646 7.378,-6.988 11.372,-10.069c4.036,-3.06 8.289,-5.664 12.76,-7.813c4.514,-2.192 9.31,-3.906 14.41,-5.121c5.143,-1.216 10.764,-1.823 16.84,-1.823c9.766,-0 18.446,1.692 26.042,5.034c7.573,3.299 13.889,7.965 18.923,13.976c5.078,5.968 8.941,13.108 11.545,21.441c2.648,8.333 3.993,17.513 3.993,27.517l0,114.15l-43.229,-0l0,-114.15c0,-10.937 -2.517,-19.379 -7.552,-25.347c-4.991,-6.011 -12.587,-9.028 -22.83,-9.028c-7.465,0 -14.475,1.693 -21.007,5.035c-6.488,3.364 -12.652,7.965 -18.489,13.802l-0,129.688l-43.143,-0l0,-179.341l26.389,0c5.556,0 9.223,2.648 11.025,7.9l2.951,14.149Z" style="fill:#c00;fill-rule:nonzero;"/></g></g></g><g><g><g><path d="M948.154,582.887c-1.171,1.866 -2.387,3.168 -3.645,3.906c-1.281,0.76 -2.93,1.129 -4.948,1.129c-2.084,-0 -4.319,-0.564 -6.684,-1.736c-2.388,-1.151 -5.165,-2.453 -8.334,-3.907c-3.125,-1.432 -6.727,-2.734 -10.764,-3.906c-3.993,-1.215 -8.745,-1.823 -14.236,-1.823c-8.507,0 -15.191,1.823 -20.052,5.469c-4.818,3.602 -7.205,8.312 -7.205,14.149c0,3.82 1.237,7.075 3.733,9.723c2.539,2.604 5.859,4.904 9.983,6.857c4.166,1.975 8.854,3.776 14.062,5.382c5.252,1.563 10.59,3.277 15.972,5.122c5.426,1.866 10.764,3.993 15.973,6.423c5.251,2.387 9.939,5.426 14.062,9.115c4.167,3.646 7.487,8.051 9.983,13.194c2.539,5.1 3.819,11.263 3.819,18.49c0,8.637 -1.562,16.58 -4.687,23.871c-3.082,7.249 -7.639,13.52 -13.716,18.837c-6.033,5.339 -13.498,9.462 -22.395,12.413c-8.92,2.952 -19.228,4.427 -30.903,4.427c-6.142,0 -12.153,-0.564 -18.056,-1.649c-5.903,-1.107 -11.588,-2.626 -17.014,-4.601c-5.382,-1.953 -10.395,-4.275 -15.017,-6.944c-4.579,-2.713 -8.594,-5.642 -12.066,-8.767l9.896,-16.493c1.324,-1.954 2.864,-3.473 4.601,-4.514c1.736,-1.042 3.927,-1.563 6.597,-1.563c2.712,0 5.251,0.76 7.639,2.257c2.365,1.519 5.121,3.169 8.246,4.948c3.169,1.736 6.879,3.364 11.111,4.861c4.275,1.519 9.679,2.257 16.233,2.257c5.078,0 9.462,-0.608 13.108,-1.823c3.689,-1.215 6.727,-2.799 9.114,-4.774c2.431,-2.018 4.188,-4.34 5.295,-6.945c1.085,-2.604 1.65,-5.316 1.65,-8.159c-0,-4.167 -1.281,-7.574 -3.82,-10.243c-2.496,-2.713 -5.816,-5.057 -9.983,-7.032c-4.123,-1.953 -8.832,-3.732 -14.149,-5.295c-5.273,-1.606 -10.677,-3.342 -16.232,-5.208c-5.513,-1.845 -10.916,-4.015 -16.233,-6.51c-5.274,-2.54 -9.983,-5.73 -14.149,-9.549c-4.124,-3.863 -7.444,-8.594 -9.983,-14.149c-2.496,-5.599 -3.733,-12.37 -3.733,-20.313c0,-7.335 1.433,-14.323 4.341,-20.92c2.951,-6.641 7.226,-12.435 12.847,-17.361c5.664,-4.97 12.717,-8.941 21.18,-11.892c8.442,-2.995 18.186,-4.514 29.254,-4.514c12.37,-0 23.633,2.061 33.767,6.163c10.113,4.058 18.577,9.418 25.347,16.059l-9.809,15.538Z" style="fill:#c00;fill-rule:nonzero;"/></g></g></g><g><g><g><path d="M1129.62,616.915c0,-5.556 -0.824,-10.786 -2.43,-15.712c-1.563,-4.97 -3.95,-9.31 -7.118,-13.021c-3.125,-3.754 -7.118,-6.706 -11.98,-8.854c-4.817,-2.192 -10.395,-3.299 -16.753,-3.299c-12.5,0 -22.352,3.559 -29.514,10.677c-7.118,7.119 -11.697,17.188 -13.715,30.209l81.51,-0Zm-82.378,26.041c0.694,9.267 2.3,17.253 4.861,23.959c2.604,6.662 5.989,12.196 10.156,16.58c4.21,4.34 9.201,7.617 14.931,9.809c5.772,2.148 12.174,3.212 19.184,3.212c6.988,-0 13.021,-0.803 18.055,-2.431c5.078,-1.671 9.505,-3.494 13.281,-5.469c3.82,-1.953 7.14,-3.754 9.983,-5.382c2.886,-1.671 5.664,-2.517 8.333,-2.517c3.581,-0 6.25,1.367 7.987,4.08l12.413,15.712c-4.753,5.62 -10.113,10.308 -16.059,14.062c-5.968,3.776 -12.196,6.814 -18.663,9.115c-6.424,2.257 -13,3.841 -19.705,4.774c-6.728,0.911 -13.195,1.389 -19.445,1.389c-12.5,-0 -24.11,-2.062 -34.809,-6.163c-10.72,-4.167 -20.03,-10.287 -27.951,-18.403c-7.943,-8.095 -14.193,-18.099 -18.75,-30.035c-4.514,-11.914 -6.771,-25.738 -6.771,-41.493c-0,-12.261 1.953,-23.785 5.903,-34.549c3.993,-10.763 9.679,-20.138 17.1,-28.125c7.401,-7.986 16.428,-14.279 27.084,-18.923c10.633,-4.688 22.678,-7.031 36.111,-7.031c11.285,-0 21.701,1.823 31.25,5.468c9.549,3.603 17.752,8.855 24.653,15.799c6.879,6.901 12.261,15.408 16.146,25.521c3.927,10.069 5.902,21.571 5.902,34.462c0,6.553 -0.738,10.937 -2.17,13.194c-1.389,2.257 -4.058,3.385 -7.986,3.385l-111.024,0Z" style="fill:#c00;fill-rule:nonzero;"/></g></g></g></svg>